<svg width="29" height="19" viewBox="0 0 29 19" fill="none" xmlns="http://www.w3.org/2000/svg">
<path d="M27.55 2.63352H26.535L26.4625 2.58888C23.403 2.39546 20.851 1.39859 19.6185 0L17.4 1.14565C17.3275 1.29444 17.2405 1.42835 17.168 1.56226C18.1975 2.46985 18.85 3.60063 18.85 4.86531C18.85 5.3563 18.7195 5.81754 18.5455 6.27878L15.834 3.49648C15.515 3.86844 15.1815 4.22553 14.819 4.55286L17.7625 7.57322C17.458 7.94518 17.11 8.27251 16.675 8.58496L13.6735 5.47533C13.253 5.7729 12.8325 6.02584 12.3975 6.27878L15.341 9.3289C14.8625 9.52232 14.3405 9.68598 13.775 9.80501L11.0055 6.96319C10.5125 7.17149 10.0195 7.36492 9.512 7.52858L11.977 10.0728H11.6C9.425 10.0728 7.54 9.38841 6.206 8.31715C5.017 8.51057 3.886 8.58496 2.9 8.58496C0 8.58496 0 13.0486 0 13.0486C0 14.7001 1.2905 16.0243 2.9 16.0243V17.5121C2.9 18.3305 3.5525 19 4.35 19C5.1475 19 5.8 18.3305 5.8 17.5121V16.0243H7.25V17.5121C7.25 18.3305 7.9025 19 8.7 19C9.4975 19 10.15 18.3305 10.15 17.5121V16.0243H11.6V17.5121C11.6 18.3305 12.2525 19 13.05 19C13.8475 19 14.5 18.3305 14.5 17.5121V16.0243H18.85V17.5121C18.85 18.3305 19.5025 19 20.3 19C21.0975 19 21.75 18.3305 21.75 17.5121V16.0243H23.2V17.5121C23.2 18.3305 23.8525 19 24.65 19C25.4475 19 26.1 18.3305 26.1 17.5121V16.0243H27.55C27.55 16.0243 29 16.0243 29 9.3289C29 4.12138 27.55 2.63352 27.55 2.63352Z" fill="#003C82"/>
</svg>
