<svg width="22" height="19" viewBox="0 0 22 19" fill="none" xmlns="http://www.w3.org/2000/svg">
<path d="M3.40476 0C2.50176 0 1.63575 0.361432 0.997232 1.00479C0.358715 1.64814 0 2.52072 0 3.43056V11.3472C0 12.2571 0.358715 13.1296 0.997232 13.773C1.63575 14.4163 2.50176 14.7778 3.40476 14.7778H11.638C11.8232 14.136 12.2206 13.5774 12.7642 13.1944H3.40476C2.91853 13.1944 2.45222 12.9998 2.1084 12.6534C1.76458 12.307 1.57143 11.8371 1.57143 11.3472V6.33333H20.9524V3.43056C20.9524 2.98005 20.8643 2.53395 20.6932 2.11774C20.5221 1.70152 20.2713 1.32334 19.9552 1.00479C19.639 0.68623 19.2637 0.433537 18.8506 0.261136C18.4375 0.0887341 17.9947 0 17.5476 0H3.40476ZM19.381 3.43056V4.75H1.57143V3.43056C1.57143 2.41089 2.39276 1.58333 3.40476 1.58333H17.5476C18.5596 1.58333 19.381 2.41089 19.381 3.43056ZM19.9048 10.0278C19.9048 10.7277 19.6288 11.3989 19.1377 11.8938C18.6465 12.3886 17.9803 12.6667 17.2857 12.6667C16.5911 12.6667 15.9249 12.3886 15.4338 11.8938C14.9426 11.3989 14.6667 10.7277 14.6667 10.0278C14.6667 9.3279 14.9426 8.65669 15.4338 8.1618C15.9249 7.66691 16.5911 7.38889 17.2857 7.38889C17.9803 7.38889 18.6465 7.66691 19.1377 8.1618C19.6288 8.65669 19.9048 9.3279 19.9048 10.0278ZM22 15.7014C22 17.3438 20.6528 19 17.2857 19C13.9187 19 12.5714 17.3502 12.5714 15.7014V15.5927C12.5714 14.5582 13.4032 13.7222 14.4289 13.7222H20.1426C21.1692 13.7222 22 14.5593 22 15.5927V15.7014Z" fill="#003C82"/>
</svg>
