<svg width="29" height="21" viewBox="0 0 29 21" fill="none" xmlns="http://www.w3.org/2000/svg">
<path d="M25.778 0H16.5142V8.45833H29.0003V3.22222C29.0003 2.36764 28.6608 1.54805 28.0565 0.943767C27.4522 0.339483 26.6326 0 25.778 0Z" fill="white"/>
<path d="M16.5139 0H12.4861V8.45833H0V12.4861H12.4861V20.9444H16.5139V12.4861H29V8.45833H16.5139V0Z" fill="#E8112D"/>
<path d="M23.2922 3.69355C23.317 3.19061 23.3765 2.68997 23.4703 2.19522C22.9968 2.25403 22.5179 2.25403 22.0444 2.19522C22.1387 2.69064 22.1975 3.19169 22.2225 3.69355C21.7195 3.66877 21.2189 3.60928 20.7241 3.51553C20.7829 3.98899 20.7829 4.4679 20.7241 4.94136C21.2189 4.84755 21.7195 4.78807 22.2225 4.76333C22.1977 5.26628 22.1382 5.76691 22.0444 6.26167C22.5179 6.20286 22.9968 6.20286 23.4703 6.26167C23.3765 5.76692 23.317 5.26628 23.2922 4.76333C23.7952 4.78812 24.2958 4.8476 24.7906 4.94136C24.7318 4.4679 24.7318 3.98899 24.7906 3.51553C24.2943 3.61058 23.7941 3.66939 23.2922 3.69355Z" fill="#E8112D"/>
<path d="M12.4861 0H3.22222C2.36764 0 1.54805 0.339483 0.943767 0.943767C0.339483 1.54805 0 2.36764 0 3.22222L0 8.45833H12.4861V0Z" fill="white"/>
<path d="M6.77832 3.69355C6.8031 3.19061 6.86259 2.68997 6.95634 2.19522C6.48288 2.25403 6.00397 2.25403 5.53051 2.19522C5.62476 2.69064 5.68357 3.19169 5.70854 3.69355C5.20559 3.66877 4.70496 3.60928 4.21021 3.51553C4.26901 3.98899 4.26901 4.4679 4.21021 4.94136C4.70495 4.84755 5.20559 4.78807 5.70854 4.76333C5.68375 5.26628 5.62427 5.76691 5.53051 6.26167C6.00397 6.20286 6.48288 6.20286 6.95634 6.26167C6.86254 5.76692 6.80305 5.26628 6.77832 4.76333C7.28126 4.78812 7.7819 4.8476 8.27665 4.94136C8.21784 4.4679 8.21784 3.98899 8.27665 3.51553C7.78043 3.61058 7.28018 3.66939 6.77832 3.69355Z" fill="#E8112D"/>
<path d="M29.0003 17.7222V12.4861H16.5142V20.9444H25.778C26.6326 20.9444 27.4522 20.605 28.0565 20.0007C28.6608 19.3964 29.0003 18.5768 29.0003 17.7222Z" fill="white"/>
<path d="M23.2922 17.251C23.3172 17.7529 23.376 18.2531 23.4703 18.7494C22.9968 18.6906 22.5179 18.6906 22.0444 18.7494C22.1387 18.254 22.1975 17.7529 22.2225 17.251C21.7195 17.2758 21.2189 17.3353 20.7241 17.4291C20.7829 16.9556 20.7829 16.4767 20.7241 16.0032C21.2195 16.0975 21.7206 16.1563 22.2225 16.1813C22.1977 15.6783 22.1382 15.1777 22.0444 14.6829C22.5179 14.7417 22.9968 14.7417 23.4703 14.6829C23.3765 15.1777 23.317 15.6783 23.2922 16.1813C23.7952 16.1565 24.2958 16.097 24.7906 16.0032C24.7318 16.4767 24.7318 16.9556 24.7906 17.4291C24.2959 17.3345 23.7952 17.275 23.2922 17.251Z" fill="#E8112D"/>
<path d="M12.4861 12.4861H0V17.7222C0 18.5768 0.339483 19.3964 0.943767 20.0007C1.54805 20.605 2.36764 20.9444 3.22222 20.9444H12.4861V12.4861Z" fill="white"/>
<path d="M6.77832 17.251C6.80329 17.7529 6.86209 18.2531 6.95634 18.7494C6.48288 18.6906 6.00397 18.6906 5.53051 18.7494C5.62476 18.254 5.68357 17.7529 5.70854 17.251C5.20559 17.2758 4.70496 17.3353 4.21021 17.4291C4.26901 16.9556 4.26901 16.4767 4.21021 16.0032C4.70562 16.0975 5.20668 16.1563 5.70854 16.1813C5.68375 15.6783 5.62427 15.1777 5.53051 14.6829C6.00397 14.7417 6.48288 14.7417 6.95634 14.6829C6.86254 15.1777 6.80305 15.6783 6.77832 16.1813C7.28126 16.1565 7.7819 16.097 8.27665 16.0032C8.21784 16.4767 8.21784 16.9556 8.27665 17.4291C7.78202 17.3345 7.28133 17.275 6.77832 17.251Z" fill="#E8112D"/>
</svg>
