<svg width="19" height="19" viewBox="0 0 19 19" fill="none" xmlns="http://www.w3.org/2000/svg">
<path d="M9.5 0C7.62108 0 5.78435 0.557165 4.22209 1.60104C2.65982 2.64491 1.44218 4.12861 0.723149 5.86451C0.0041162 7.6004 -0.184015 9.51054 0.182544 11.3534C0.549104 13.1962 1.45389 14.8889 2.78249 16.2175C4.11109 17.5461 5.80383 18.4509 7.64665 18.8175C9.48946 19.184 11.3996 18.9959 13.1355 18.2769C14.8714 17.5578 16.3551 16.3402 17.399 14.7779C18.4428 13.2156 19 11.3789 19 9.5C18.9973 6.98126 17.9956 4.56644 16.2146 2.78542C14.4336 1.0044 12.0187 0.00265983 9.5 0ZM10.2308 3.59721L12.4952 2.03976C13.7917 2.56202 14.9305 3.41184 15.8001 4.5061L15.0694 6.96697C15.0511 6.96697 15.0319 6.9761 15.0137 6.9825L12.9291 7.65937C12.8979 7.66937 12.8673 7.68158 12.8378 7.69591L10.2308 5.90279V3.59721ZM6.5075 2.03976L8.76923 3.59721V5.90279L6.16039 7.69957C6.13084 7.68524 6.10032 7.67303 6.06904 7.66303L3.98452 6.98615C3.96625 6.97976 3.94707 6.97519 3.9288 6.97062L3.19803 4.50976C4.06849 3.41353 5.20893 2.56237 6.5075 2.03976ZM5.32 13.8316H2.73125C1.97347 12.6534 1.53904 11.2966 1.47159 9.89735L3.48121 8.35543C3.49849 8.36308 3.51618 8.36978 3.53419 8.37553L5.61962 9.05332C5.6475 9.06174 5.67587 9.06845 5.70457 9.07341L6.6902 11.9435C6.67649 11.9599 6.66279 11.9764 6.65 11.9937L5.36202 13.7668C5.34685 13.7876 5.33283 13.8093 5.32 13.8316ZM11.5726 17.2644C10.2146 17.6261 8.78545 17.6261 7.42736 17.2644L6.50842 14.6702C6.52029 14.6556 6.53308 14.6419 6.54404 14.6263L7.83294 12.8524C7.8481 12.8319 7.86212 12.8105 7.87495 12.7885H11.125C11.1379 12.8105 11.1519 12.8319 11.1671 12.8524L12.456 14.6263C12.4669 14.6419 12.4797 14.6556 12.4916 14.6702L11.5726 17.2644ZM13.68 13.8289C13.6672 13.8065 13.6532 13.7849 13.638 13.764L12.3491 11.9937C12.3363 11.9764 12.3226 11.9599 12.3089 11.9435L13.2945 9.07341C13.3232 9.06845 13.3516 9.06174 13.3795 9.05332L15.4649 8.37553C15.4829 8.36978 15.5006 8.36308 15.5179 8.35543L17.5275 9.89735C17.4601 11.2966 17.0256 12.6534 16.2678 13.8316L13.68 13.8289Z" fill="#003C82"/>
</svg>
