<svg width="41" height="27" viewBox="0 0 41 27" fill="none" xmlns="http://www.w3.org/2000/svg">
<path d="M1.33572 10.2941C2.07342 10.2941 2.67144 9.6961 2.67144 8.9584C2.67144 8.2207 2.07342 7.62268 1.33572 7.62268C0.598023 7.62268 0 8.2207 0 8.9584C0 9.6961 0.598023 10.2941 1.33572 10.2941Z" fill="#003C82" fill-opacity="0.3"/>
<path d="M12.7937 5.39395C14.2832 5.39395 15.4906 4.18647 15.4906 2.69698C15.4906 1.20748 14.2832 0 12.7937 0C11.3042 0 10.0967 1.20748 10.0967 2.69698C10.0967 4.18647 11.3042 5.39395 12.7937 5.39395Z" fill="#003C82" fill-opacity="0.3"/>
<path d="M7.23076 5.24017C8.15993 5.24017 8.91318 4.48693 8.91318 3.55775C8.91318 2.62858 8.15993 1.87534 7.23076 1.87534C6.30158 1.87534 5.54834 2.62858 5.54834 3.55775C5.54834 4.48693 6.30158 5.24017 7.23076 5.24017Z" fill="#003C82" fill-opacity="0.3"/>
<path d="M14.9803 20.6968C14.5658 20.0314 14.3331 19.2689 14.3056 18.4855C14.2781 17.702 14.4566 16.925 14.8234 16.2322L14.813 16.2165C15.5036 15.1825 15.8715 13.9666 15.87 12.7231C15.87 9.23888 13.0453 6.41455 9.56146 6.41455C6.07726 6.41455 3.25293 9.23888 3.25293 12.7231C3.25293 13.4036 3.36368 14.0576 3.56333 14.6719C3.69546 15.2152 3.91 15.7351 4.1995 16.2134L4.16997 16.2303L8.73948 24.1453C9.22184 25.5727 10.5689 26.6014 12.1588 26.6014C14.1534 26.6014 15.7712 24.9845 15.7712 22.9896C15.7712 22.1242 15.4661 21.3302 14.9582 20.7082L14.9803 20.6968Z" fill="#003C82" fill-opacity="0.3"/>
<path d="M3.67752 7.46643C4.41522 7.46643 5.01324 6.8684 5.01324 6.1307C5.01324 5.39301 4.41522 4.79498 3.67752 4.79498C2.93982 4.79498 2.3418 5.39301 2.3418 6.1307C2.3418 6.8684 2.93982 7.46643 3.67752 7.46643Z" fill="#003C82" fill-opacity="0.3"/>
<path d="M39.136 10.2941C38.3983 10.2941 37.8002 9.6961 37.8002 8.9584C37.8002 8.2207 38.3983 7.62268 39.136 7.62268C39.8737 7.62268 40.4717 8.2207 40.4717 8.9584C40.4717 9.6961 39.8737 10.2941 39.136 10.2941Z" fill="#003C82"/>
<path d="M27.678 5.39395C26.1885 5.39395 24.9811 4.18647 24.9811 2.69698C24.9811 1.20748 26.1885 0 27.678 0C29.1675 0 30.375 1.20748 30.375 2.69698C30.375 4.18647 29.1675 5.39395 27.678 5.39395Z" fill="#003C82"/>
<path d="M33.2409 5.24017C32.3117 5.24017 31.5585 4.48693 31.5585 3.55775C31.5585 2.62858 32.3117 1.87534 33.2409 1.87534C34.1701 1.87534 34.9233 2.62858 34.9233 3.55775C34.9233 4.48693 34.1701 5.24017 33.2409 5.24017Z" fill="#003C82"/>
<path d="M25.4914 20.6968C25.9059 20.0314 26.1386 19.2689 26.1661 18.4855C26.1936 17.702 26.0151 16.925 25.6482 16.2322L25.6587 16.2165C24.9681 15.1825 24.6002 13.9666 24.6017 12.7231C24.6017 9.23888 27.4263 6.41455 30.9102 6.41455C34.3944 6.41455 37.2188 9.23888 37.2188 12.7231C37.2188 13.4036 37.108 14.0576 36.9084 14.6719C36.7762 15.2152 36.5617 15.7351 36.2722 16.2134L36.3017 16.2303L31.7322 24.1453C31.2498 25.5727 29.9027 26.6014 28.3129 26.6014C26.3183 26.6014 24.7004 24.9845 24.7004 22.9896C24.7004 22.1242 25.0056 21.3302 25.5135 20.7082L25.4914 20.6968Z" fill="#003C82"/>
<path d="M36.7942 7.46643C36.0565 7.46643 35.4584 6.8684 35.4584 6.1307C35.4584 5.39301 36.0565 4.79498 36.7942 4.79498C37.5319 4.79498 38.1299 5.39301 38.1299 6.1307C38.1299 6.8684 37.5319 7.46643 36.7942 7.46643Z" fill="#003C82"/>
</svg>
