<svg width="18" height="88" viewBox="0 0 18 88" fill="none" xmlns="http://www.w3.org/2000/svg">
<path d="M7.82393 5.328V2.304L-6.86646e-05 2.304V0L17.2319 0V5.712H15.1439V2.304L9.91193 2.304V5.328H7.82393Z" fill="white"/>
<path d="M-6.86646e-05 11.6096C-6.86646e-05 9.75363 0.975932 8.82563 2.92793 8.82563H14.2799C16.2479 8.82563 17.2319 9.74563 17.2319 11.5856V13.7936C17.2319 15.6336 16.2479 16.5536 14.2799 16.5536H2.92793C0.975932 16.5536 -6.86646e-05 15.6256 -6.86646e-05 13.7696V11.6096ZM2.08793 13.3376C2.08793 13.9456 2.42393 14.2496 3.09593 14.2496H14.1359C14.8079 14.2496 15.1439 13.9056 15.1439 13.2176V12.1376C15.1439 11.4656 14.8079 11.1296 14.1359 11.1296H3.09593C2.42393 11.1296 2.08793 11.4736 2.08793 12.1616V13.3376Z" fill="white"/>
<path d="M-6.86646e-05 20.2819H17.2319V22.5859H2.08793V25.7539H-6.86646e-05V20.2819Z" fill="white"/>
<path d="M-6.86646e-05 28.7587H17.2319L17.2319 31.0627H2.08793V34.2307H-6.86646e-05L-6.86646e-05 28.7587Z" fill="white"/>
<path d="M-6.86646e-05 39.8996C-6.86646e-05 38.0436 0.975932 37.1156 2.92793 37.1156H14.2799C16.2479 37.1156 17.2319 38.0356 17.2319 39.8756V42.0836C17.2319 43.9236 16.2479 44.8436 14.2799 44.8436H2.92793C0.975932 44.8436 -6.86646e-05 43.9156 -6.86646e-05 42.0596V39.8996ZM2.08793 41.6276C2.08793 42.2356 2.42393 42.5396 3.09593 42.5396H14.1359C14.8079 42.5396 15.1439 42.1956 15.1439 41.5076V40.4276C15.1439 39.7556 14.8079 39.4196 14.1359 39.4196H3.09593C2.42393 39.4196 2.08793 39.7636 2.08793 40.4516V41.6276Z" fill="white"/>
<path d="M-6.86646e-05 58.0759V55.5799L9.98393 54.1639L-6.86646e-05 52.7719V50.2759L17.2319 47.7319V50.0119L4.31993 51.6439L17.2319 53.2759V55.0759L4.31993 56.7079L17.2319 58.3399V60.6199L-6.86646e-05 58.0759Z" fill="white"/>
<path d="M3.26393 76.623C1.08793 76.623 -6.86646e-05 75.695 -6.86646e-05 73.839V71.895C-6.86646e-05 70.055 1.09593 69.135 3.28793 69.135H17.2319V71.439H3.21593C2.46393 71.439 2.08793 71.775 2.08793 72.447L2.08793 73.383C2.08793 74.007 2.46393 74.319 3.21593 74.319H17.2319V76.623H3.26393Z" fill="white"/>
<path d="M14.1119 84.8873C14.7999 84.8873 15.1439 84.5512 15.1439 83.8792V83.5192C15.1439 82.8632 14.7999 82.5352 14.1119 82.5352H11.2559C10.9359 82.5352 10.7199 82.5992 10.6079 82.7272C10.4959 82.8552 10.3519 83.0632 10.1759 83.3512L8.99993 85.5352C8.72793 86.0152 8.51193 86.3513 8.35193 86.5433C8.20793 86.7513 8.02393 86.9113 7.79993 87.0233C7.59193 87.1353 7.18393 87.1913 6.57593 87.1913H2.90393C0.967932 87.1913 -6.86646e-05 86.2632 -6.86646e-05 84.4072V82.9912C-6.86646e-05 81.1512 1.05593 80.2312 3.16793 80.2312H4.03193V82.5352H3.09593C2.42393 82.5352 2.08793 82.8793 2.08793 83.5673V83.9753C2.08793 84.5833 2.42393 84.8873 3.09593 84.8873H6.02393C6.34393 84.8873 6.55993 84.8233 6.67193 84.6953C6.78393 84.5673 6.92793 84.3593 7.10393 84.0713L8.32793 81.8873C8.58393 81.4073 8.79993 81.0553 8.97593 80.8313C9.15193 80.6233 9.37593 80.4713 9.64793 80.3753C9.93593 80.2793 10.3039 80.2312 10.7519 80.2312H14.2799C16.2479 80.2312 17.2319 81.1512 17.2319 82.9912V84.4313C17.2319 86.2713 16.2479 87.1913 14.2799 87.1913H12.5999V84.8873H14.1119Z" fill="white"/>
</svg>
