<svg width="2126" height="596" viewBox="0 0 2126 596" fill="none" xmlns="http://www.w3.org/2000/svg">
<g opacity="0.2">
<path d="M0 1.88008L589.2 591.804L585.476 595.556L0 1.88008Z" fill="url(#paint0_linear_201_26)"/>
<path d="M15.53 1.88008L604.73 591.804L601.006 595.556L15.53 1.88008Z" fill="url(#paint1_linear_201_26)"/>
<path d="M31.0851 1.88008L620.292 591.804L616.568 595.556L31.0851 1.88008Z" fill="url(#paint2_linear_201_26)"/>
<path d="M46.6307 1.88008L635.831 591.804L632.107 595.556L46.6307 1.88008Z" fill="url(#paint3_linear_201_26)"/>
<path d="M62.1734 1.88008L651.374 591.804L647.649 595.556L62.1734 1.88008Z" fill="url(#paint4_linear_201_26)"/>
<path d="M77.7034 1.88008L666.91 591.804L663.187 595.556L77.7034 1.88008Z" fill="url(#paint5_linear_201_26)"/>
<path d="M93.2489 1.88008L682.449 591.804L678.725 595.556L93.2489 1.88008Z" fill="url(#paint6_linear_201_26)"/>
<path d="M108.804 1.88008L698.004 591.804L694.28 595.556L108.804 1.88008Z" fill="url(#paint7_linear_201_26)"/>
<path d="M124.344 1.88008L713.551 591.804L709.827 595.556L124.344 1.88008Z" fill="url(#paint8_linear_201_26)"/>
<path d="M139.874 1.88008L729.075 591.804L725.351 595.556L139.874 1.88008Z" fill="url(#paint9_linear_201_26)"/>
<path d="M155.432 1.88008L744.632 591.804L740.908 595.556L155.432 1.88008Z" fill="url(#paint10_linear_201_26)"/>
<path d="M170.972 1.88008L760.179 591.804L756.455 595.556L170.972 1.88008Z" fill="url(#paint11_linear_201_26)"/>
<path d="M186.518 1.88008L775.718 591.804L771.994 595.556L186.518 1.88008Z" fill="url(#paint12_linear_201_26)"/>
<path d="M202.047 1.88008L791.248 591.804L787.524 595.556L202.047 1.88008Z" fill="url(#paint13_linear_201_26)"/>
<path d="M217.603 1.88008L806.809 591.804L803.085 595.556L217.603 1.88008Z" fill="url(#paint14_linear_201_26)"/>
<path d="M233.133 1.88008L822.333 591.804L818.609 595.556L233.133 1.88008Z" fill="url(#paint15_linear_201_26)"/>
<path d="M248.686 1.88008L837.887 591.804L834.162 595.556L248.686 1.88008Z" fill="url(#paint16_linear_201_26)"/>
<path d="M264.221 1.88008L853.427 591.804L849.704 595.556L264.221 1.88008Z" fill="url(#paint17_linear_201_26)"/>
<path d="M279.776 1.88008L868.976 591.804L865.252 595.556L279.776 1.88008Z" fill="url(#paint18_linear_201_26)"/>
<path d="M295.316 1.88008L884.516 591.804L880.793 595.556L295.316 1.88008Z" fill="url(#paint19_linear_201_26)"/>
<path d="M310.852 1.88008L900.058 591.804L896.334 595.556L310.852 1.88008Z" fill="url(#paint20_linear_201_26)"/>
<path d="M326.404 1.88008L915.605 591.804L911.881 595.556L326.404 1.88008Z" fill="url(#paint21_linear_201_26)"/>
<path d="M341.947 1.88008L931.147 591.804L927.423 595.556L341.947 1.88008Z" fill="url(#paint22_linear_201_26)"/>
<path d="M357.48 1.88008L946.685 591.804L942.963 595.556L357.48 1.88008Z" fill="url(#paint23_linear_201_26)"/>
<path d="M373.02 1.88008L962.22 591.804L958.498 595.556L373.02 1.88008Z" fill="url(#paint24_linear_201_26)"/>
<path d="M390.325 0L975.802 593.676L386.595 3.75201L390.325 0Z" fill="url(#paint25_linear_201_26)"/>
<path d="M405.872 0L991.352 593.676L402.148 3.75201L405.872 0Z" fill="url(#paint26_linear_201_26)"/>
<path d="M421.406 0L1006.88 593.676L417.682 3.75201L421.406 0Z" fill="url(#paint27_linear_201_26)"/>
<path d="M436.953 0L1022.43 593.676L433.223 3.75201L436.953 0Z" fill="url(#paint28_linear_201_26)"/>
<path d="M452.492 0L1037.98 593.676L448.768 3.75201L452.492 0Z" fill="url(#paint29_linear_201_26)"/>
<path d="M468.045 0L1053.52 593.676L464.321 3.75201L468.045 0Z" fill="url(#paint30_linear_201_26)"/>
<path d="M483.582 0L1069.06 593.676L479.851 3.75201L483.582 0Z" fill="url(#paint31_linear_201_26)"/>
<path d="M499.12 0L1084.6 593.676L495.396 3.75201L499.12 0Z" fill="url(#paint32_linear_201_26)"/>
<path d="M514.675 0L1100.15 593.676L510.952 3.75201L514.675 0Z" fill="url(#paint33_linear_201_26)"/>
<path d="M530.212 0L1115.69 593.676L526.482 3.75201L530.212 0Z" fill="url(#paint34_linear_201_26)"/>
<path d="M545.75 0L1131.23 593.676L542.027 3.75201L545.75 0Z" fill="url(#paint35_linear_201_26)"/>
<path d="M561.29 0L1146.77 593.676L557.567 3.75201L561.29 0Z" fill="url(#paint36_linear_201_26)"/>
<path d="M576.843 0L1162.32 593.676L573.113 3.75201L576.843 0Z" fill="url(#paint37_linear_201_26)"/>
<path d="M592.39 0L1177.87 593.676L588.665 3.75201L592.39 0Z" fill="url(#paint38_linear_201_26)"/>
<path d="M607.921 0L1193.4 593.676L604.198 3.75201L607.921 0Z" fill="url(#paint39_linear_201_26)"/>
<path d="M623.481 0L1208.96 593.676L619.75 3.75201L623.481 0Z" fill="url(#paint40_linear_201_26)"/>
<path d="M639.009 0L1224.49 593.676L635.286 3.75201L639.009 0Z" fill="url(#paint41_linear_201_26)"/>
<path d="M654.549 0L1240.03 593.676L650.825 3.75201L654.549 0Z" fill="url(#paint42_linear_201_26)"/>
<path d="M670.099 0L1255.58 593.676L666.369 3.75201L670.099 0Z" fill="url(#paint43_linear_201_26)"/>
<path d="M685.647 0L1271.13 593.676L681.924 3.75201L685.647 0Z" fill="url(#paint44_linear_201_26)"/>
<path d="M701.178 0L1286.65 593.676L697.454 3.75201L701.178 0Z" fill="url(#paint45_linear_201_26)"/>
<path d="M716.73 0L1302.21 593.676L712.999 3.75201L716.73 0Z" fill="url(#paint46_linear_201_26)"/>
<path d="M732.268 0L1317.75 593.676L728.544 3.75201L732.268 0Z" fill="url(#paint47_linear_201_26)"/>
<path d="M747.808 0L1333.28 593.676L744.084 3.75201L747.808 0Z" fill="url(#paint48_linear_201_26)"/>
<path d="M763.36 0L1348.84 593.676L759.629 3.75201L763.36 0Z" fill="url(#paint49_linear_201_26)"/>
<path d="M777.083 1.88008L1366.29 591.804L1362.56 595.556L777.083 1.88008Z" fill="url(#paint50_linear_201_26)"/>
<path d="M792.638 1.88008L1381.84 591.804L1378.12 595.556L792.638 1.88008Z" fill="url(#paint51_linear_201_26)"/>
<path d="M808.173 1.88008L1397.38 591.804L1393.66 595.556L808.173 1.88008Z" fill="url(#paint52_linear_201_26)"/>
<path d="M823.726 1.88008L1412.93 591.804L1409.2 595.556L823.726 1.88008Z" fill="url(#paint53_linear_201_26)"/>
<path d="M839.256 1.88008L1428.45 591.804L1424.73 595.556L839.256 1.88008Z" fill="url(#paint54_linear_201_26)"/>
<path d="M854.796 1.88008L1444 591.804L1440.28 595.556L854.796 1.88008Z" fill="url(#paint55_linear_201_26)"/>
<path d="M870.341 1.88008L1459.54 591.804L1455.82 595.556L870.341 1.88008Z" fill="url(#paint56_linear_201_26)"/>
<path d="M885.887 1.88008L1475.09 591.804L1471.36 595.556L885.887 1.88008Z" fill="url(#paint57_linear_201_26)"/>
<path d="M901.427 1.88008L1490.63 591.804L1486.91 595.556L901.427 1.88008Z" fill="url(#paint58_linear_201_26)"/>
<path d="M916.972 1.88008L1506.17 591.804L1502.45 595.556L916.972 1.88008Z" fill="url(#paint59_linear_201_26)"/>
<path d="M932.514 1.88008L1521.71 591.804L1517.99 595.556L932.514 1.88008Z" fill="url(#paint60_linear_201_26)"/>
<path d="M948.055 1.88008L1537.26 591.804L1533.54 595.556L948.055 1.88008Z" fill="url(#paint61_linear_201_26)"/>
<path d="M963.602 1.88008L1552.8 591.804L1549.08 595.556L963.602 1.88008Z" fill="url(#paint62_linear_201_26)"/>
<path d="M979.153 1.88008L1568.35 591.804L1564.63 595.556L979.153 1.88008Z" fill="url(#paint63_linear_201_26)"/>
<path d="M994.683 1.88008L1583.89 591.804L1580.17 595.556L994.683 1.88008Z" fill="url(#paint64_linear_201_26)"/>
<path d="M1010.24 1.88008L1599.44 591.804L1595.72 595.556L1010.24 1.88008Z" fill="url(#paint65_linear_201_26)"/>
<path d="M1025.78 1.88008L1614.98 591.804L1611.25 595.556L1025.78 1.88008Z" fill="url(#paint66_linear_201_26)"/>
<path d="M1041.32 1.88008L1630.52 591.804L1626.79 595.556L1041.32 1.88008Z" fill="url(#paint67_linear_201_26)"/>
<path d="M1056.86 1.88008L1646.06 591.804L1642.34 595.556L1056.86 1.88008Z" fill="url(#paint68_linear_201_26)"/>
<path d="M1072.4 1.88008L1661.6 591.804L1657.88 595.556L1072.4 1.88008Z" fill="url(#paint69_linear_201_26)"/>
<path d="M1087.94 1.88008L1677.15 591.804L1673.43 595.556L1087.94 1.88008Z" fill="url(#paint70_linear_201_26)"/>
<path d="M1103.49 1.88008L1692.69 591.804L1688.97 595.556L1103.49 1.88008Z" fill="url(#paint71_linear_201_26)"/>
<path d="M1119.03 1.88008L1708.23 591.804L1704.51 595.556L1119.03 1.88008Z" fill="url(#paint72_linear_201_26)"/>
<path d="M1134.57 1.88008L1723.78 591.804L1720.06 595.556L1134.57 1.88008Z" fill="url(#paint73_linear_201_26)"/>
<path d="M1150.12 1.88008L1739.32 591.804L1735.59 595.556L1150.12 1.88008Z" fill="url(#paint74_linear_201_26)"/>
<path d="M1167.49 0L1752.97 593.676L1163.75 3.75201L1167.49 0Z" fill="url(#paint75_linear_201_26)"/>
<path d="M1183.02 0L1768.51 593.676L1179.3 3.75201L1183.02 0Z" fill="url(#paint76_linear_201_26)"/>
<path d="M1198.57 0L1784.05 593.676L1194.85 3.75201L1198.57 0Z" fill="url(#paint77_linear_201_26)"/>
<path d="M1214.12 0L1799.59 593.676L1210.39 3.75201L1214.12 0Z" fill="url(#paint78_linear_201_26)"/>
<path d="M1229.66 0L1815.14 593.676L1225.93 3.75201L1229.66 0Z" fill="url(#paint79_linear_201_26)"/>
<path d="M1245.2 0L1830.67 593.676L1241.47 3.75201L1245.2 0Z" fill="url(#paint80_linear_201_26)"/>
<path d="M1260.74 0L1846.21 593.676L1257.01 3.75201L1260.74 0Z" fill="url(#paint81_linear_201_26)"/>
<path d="M1276.28 0L1861.77 593.676L1272.56 3.75201L1276.28 0Z" fill="url(#paint82_linear_201_26)"/>
<path d="M1291.84 0L1877.31 593.676L1288.11 3.75201L1291.84 0Z" fill="url(#paint83_linear_201_26)"/>
<path d="M1307.38 0L1892.85 593.676L1303.64 3.75201L1307.38 0Z" fill="url(#paint84_linear_201_26)"/>
<path d="M1322.91 0L1908.39 593.676L1319.19 3.75201L1322.91 0Z" fill="url(#paint85_linear_201_26)"/>
<path d="M1338.45 0L1923.93 593.676L1334.73 3.75201L1338.45 0Z" fill="url(#paint86_linear_201_26)"/>
<path d="M1354 0L1939.48 593.676L1350.28 3.75201L1354 0Z" fill="url(#paint87_linear_201_26)"/>
<path d="M1369.54 0L1955.02 593.676L1365.82 3.75201L1369.54 0Z" fill="url(#paint88_linear_201_26)"/>
<path d="M1385.08 0L1970.56 593.676L1381.36 3.75201L1385.08 0Z" fill="url(#paint89_linear_201_26)"/>
<path d="M1400.63 0L1986.11 593.676L1396.91 3.75201L1400.63 0Z" fill="url(#paint90_linear_201_26)"/>
<path d="M1416.17 0L2001.66 593.676L1412.45 3.75201L1416.17 0Z" fill="url(#paint91_linear_201_26)"/>
<path d="M1431.71 0L2017.19 593.676L1427.99 3.75201L1431.71 0Z" fill="url(#paint92_linear_201_26)"/>
<path d="M1447.26 0L2032.73 593.676L1443.52 3.75201L1447.26 0Z" fill="url(#paint93_linear_201_26)"/>
<path d="M1462.8 0L2048.28 593.676L1459.08 3.75201L1462.8 0Z" fill="url(#paint94_linear_201_26)"/>
<path d="M1478.36 0L2063.83 593.676L1474.63 3.75201L1478.36 0Z" fill="url(#paint95_linear_201_26)"/>
<path d="M1493.89 0L2079.37 593.676L1490.16 3.75201L1493.89 0Z" fill="url(#paint96_linear_201_26)"/>
<path d="M1509.43 0L2094.91 593.676L1505.71 3.75201L1509.43 0Z" fill="url(#paint97_linear_201_26)"/>
<path d="M1524.97 0L2110.45 593.676L1521.25 3.75201L1524.97 0Z" fill="url(#paint98_linear_201_26)"/>
<path d="M1540.52 0L2126 593.676L1536.79 3.75201L1540.52 0Z" fill="url(#paint99_linear_201_26)"/>
</g>
<defs>
<linearGradient id="paint0_linear_201_26" x1="1063" y1="0" x2="1063" y2="595.556" gradientUnits="userSpaceOnUse">
<stop stop-color="#2293CD"/>
<stop offset="1" stop-color="#06325F" stop-opacity="0"/>
</linearGradient>
<linearGradient id="paint1_linear_201_26" x1="1063" y1="0" x2="1063" y2="595.556" gradientUnits="userSpaceOnUse">
<stop stop-color="#2293CD"/>
<stop offset="1" stop-color="#06325F" stop-opacity="0"/>
</linearGradient>
<linearGradient id="paint2_linear_201_26" x1="1063" y1="0" x2="1063" y2="595.556" gradientUnits="userSpaceOnUse">
<stop stop-color="#2293CD"/>
<stop offset="1" stop-color="#06325F" stop-opacity="0"/>
</linearGradient>
<linearGradient id="paint3_linear_201_26" x1="1063" y1="0" x2="1063" y2="595.556" gradientUnits="userSpaceOnUse">
<stop stop-color="#2293CD"/>
<stop offset="1" stop-color="#06325F" stop-opacity="0"/>
</linearGradient>
<linearGradient id="paint4_linear_201_26" x1="1063" y1="0" x2="1063" y2="595.556" gradientUnits="userSpaceOnUse">
<stop stop-color="#2293CD"/>
<stop offset="1" stop-color="#06325F" stop-opacity="0"/>
</linearGradient>
<linearGradient id="paint5_linear_201_26" x1="1063" y1="0" x2="1063" y2="595.556" gradientUnits="userSpaceOnUse">
<stop stop-color="#2293CD"/>
<stop offset="1" stop-color="#06325F" stop-opacity="0"/>
</linearGradient>
<linearGradient id="paint6_linear_201_26" x1="1063" y1="0" x2="1063" y2="595.556" gradientUnits="userSpaceOnUse">
<stop stop-color="#2293CD"/>
<stop offset="1" stop-color="#06325F" stop-opacity="0"/>
</linearGradient>
<linearGradient id="paint7_linear_201_26" x1="1063" y1="0" x2="1063" y2="595.556" gradientUnits="userSpaceOnUse">
<stop stop-color="#2293CD"/>
<stop offset="1" stop-color="#06325F" stop-opacity="0"/>
</linearGradient>
<linearGradient id="paint8_linear_201_26" x1="1063" y1="0" x2="1063" y2="595.556" gradientUnits="userSpaceOnUse">
<stop stop-color="#2293CD"/>
<stop offset="1" stop-color="#06325F" stop-opacity="0"/>
</linearGradient>
<linearGradient id="paint9_linear_201_26" x1="1063" y1="0" x2="1063" y2="595.556" gradientUnits="userSpaceOnUse">
<stop stop-color="#2293CD"/>
<stop offset="1" stop-color="#06325F" stop-opacity="0"/>
</linearGradient>
<linearGradient id="paint10_linear_201_26" x1="1063" y1="0" x2="1063" y2="595.556" gradientUnits="userSpaceOnUse">
<stop stop-color="#2293CD"/>
<stop offset="1" stop-color="#06325F" stop-opacity="0"/>
</linearGradient>
<linearGradient id="paint11_linear_201_26" x1="1063" y1="0" x2="1063" y2="595.556" gradientUnits="userSpaceOnUse">
<stop stop-color="#2293CD"/>
<stop offset="1" stop-color="#06325F" stop-opacity="0"/>
</linearGradient>
<linearGradient id="paint12_linear_201_26" x1="1063" y1="0" x2="1063" y2="595.556" gradientUnits="userSpaceOnUse">
<stop stop-color="#2293CD"/>
<stop offset="1" stop-color="#06325F" stop-opacity="0"/>
</linearGradient>
<linearGradient id="paint13_linear_201_26" x1="1063" y1="0" x2="1063" y2="595.556" gradientUnits="userSpaceOnUse">
<stop stop-color="#2293CD"/>
<stop offset="1" stop-color="#06325F" stop-opacity="0"/>
</linearGradient>
<linearGradient id="paint14_linear_201_26" x1="1063" y1="0" x2="1063" y2="595.556" gradientUnits="userSpaceOnUse">
<stop stop-color="#2293CD"/>
<stop offset="1" stop-color="#06325F" stop-opacity="0"/>
</linearGradient>
<linearGradient id="paint15_linear_201_26" x1="1063" y1="0" x2="1063" y2="595.556" gradientUnits="userSpaceOnUse">
<stop stop-color="#2293CD"/>
<stop offset="1" stop-color="#06325F" stop-opacity="0"/>
</linearGradient>
<linearGradient id="paint16_linear_201_26" x1="1063" y1="0" x2="1063" y2="595.556" gradientUnits="userSpaceOnUse">
<stop stop-color="#2293CD"/>
<stop offset="1" stop-color="#06325F" stop-opacity="0"/>
</linearGradient>
<linearGradient id="paint17_linear_201_26" x1="1063" y1="0" x2="1063" y2="595.556" gradientUnits="userSpaceOnUse">
<stop stop-color="#2293CD"/>
<stop offset="1" stop-color="#06325F" stop-opacity="0"/>
</linearGradient>
<linearGradient id="paint18_linear_201_26" x1="1063" y1="0" x2="1063" y2="595.556" gradientUnits="userSpaceOnUse">
<stop stop-color="#2293CD"/>
<stop offset="1" stop-color="#06325F" stop-opacity="0"/>
</linearGradient>
<linearGradient id="paint19_linear_201_26" x1="1063" y1="0" x2="1063" y2="595.556" gradientUnits="userSpaceOnUse">
<stop stop-color="#2293CD"/>
<stop offset="1" stop-color="#06325F" stop-opacity="0"/>
</linearGradient>
<linearGradient id="paint20_linear_201_26" x1="1063" y1="0" x2="1063" y2="595.556" gradientUnits="userSpaceOnUse">
<stop stop-color="#2293CD"/>
<stop offset="1" stop-color="#06325F" stop-opacity="0"/>
</linearGradient>
<linearGradient id="paint21_linear_201_26" x1="1063" y1="0" x2="1063" y2="595.556" gradientUnits="userSpaceOnUse">
<stop stop-color="#2293CD"/>
<stop offset="1" stop-color="#06325F" stop-opacity="0"/>
</linearGradient>
<linearGradient id="paint22_linear_201_26" x1="1063" y1="0" x2="1063" y2="595.556" gradientUnits="userSpaceOnUse">
<stop stop-color="#2293CD"/>
<stop offset="1" stop-color="#06325F" stop-opacity="0"/>
</linearGradient>
<linearGradient id="paint23_linear_201_26" x1="1063" y1="0" x2="1063" y2="595.556" gradientUnits="userSpaceOnUse">
<stop stop-color="#2293CD"/>
<stop offset="1" stop-color="#06325F" stop-opacity="0"/>
</linearGradient>
<linearGradient id="paint24_linear_201_26" x1="1063" y1="0" x2="1063" y2="595.556" gradientUnits="userSpaceOnUse">
<stop stop-color="#2293CD"/>
<stop offset="1" stop-color="#06325F" stop-opacity="0"/>
</linearGradient>
<linearGradient id="paint25_linear_201_26" x1="1063" y1="0" x2="1063" y2="595.556" gradientUnits="userSpaceOnUse">
<stop stop-color="#2293CD"/>
<stop offset="1" stop-color="#06325F" stop-opacity="0"/>
</linearGradient>
<linearGradient id="paint26_linear_201_26" x1="1063.01" y1="0" x2="1063.01" y2="595.556" gradientUnits="userSpaceOnUse">
<stop stop-color="#2293CD"/>
<stop offset="1" stop-color="#06325F" stop-opacity="0"/>
</linearGradient>
<linearGradient id="paint27_linear_201_26" x1="1063" y1="0" x2="1063" y2="595.556" gradientUnits="userSpaceOnUse">
<stop stop-color="#2293CD"/>
<stop offset="1" stop-color="#06325F" stop-opacity="0"/>
</linearGradient>
<linearGradient id="paint28_linear_201_26" x1="1063" y1="0" x2="1063" y2="595.556" gradientUnits="userSpaceOnUse">
<stop stop-color="#2293CD"/>
<stop offset="1" stop-color="#06325F" stop-opacity="0"/>
</linearGradient>
<linearGradient id="paint29_linear_201_26" x1="1063" y1="0" x2="1063" y2="595.556" gradientUnits="userSpaceOnUse">
<stop stop-color="#2293CD"/>
<stop offset="1" stop-color="#06325F" stop-opacity="0"/>
</linearGradient>
<linearGradient id="paint30_linear_201_26" x1="1063" y1="0" x2="1063" y2="595.556" gradientUnits="userSpaceOnUse">
<stop stop-color="#2293CD"/>
<stop offset="1" stop-color="#06325F" stop-opacity="0"/>
</linearGradient>
<linearGradient id="paint31_linear_201_26" x1="1063" y1="0" x2="1063" y2="595.556" gradientUnits="userSpaceOnUse">
<stop stop-color="#2293CD"/>
<stop offset="1" stop-color="#06325F" stop-opacity="0"/>
</linearGradient>
<linearGradient id="paint32_linear_201_26" x1="1063" y1="0" x2="1063" y2="595.556" gradientUnits="userSpaceOnUse">
<stop stop-color="#2293CD"/>
<stop offset="1" stop-color="#06325F" stop-opacity="0"/>
</linearGradient>
<linearGradient id="paint33_linear_201_26" x1="1063" y1="0" x2="1063" y2="595.556" gradientUnits="userSpaceOnUse">
<stop stop-color="#2293CD"/>
<stop offset="1" stop-color="#06325F" stop-opacity="0"/>
</linearGradient>
<linearGradient id="paint34_linear_201_26" x1="1063" y1="0" x2="1063" y2="595.556" gradientUnits="userSpaceOnUse">
<stop stop-color="#2293CD"/>
<stop offset="1" stop-color="#06325F" stop-opacity="0"/>
</linearGradient>
<linearGradient id="paint35_linear_201_26" x1="1063" y1="0" x2="1063" y2="595.556" gradientUnits="userSpaceOnUse">
<stop stop-color="#2293CD"/>
<stop offset="1" stop-color="#06325F" stop-opacity="0"/>
</linearGradient>
<linearGradient id="paint36_linear_201_26" x1="1063" y1="0" x2="1063" y2="595.556" gradientUnits="userSpaceOnUse">
<stop stop-color="#2293CD"/>
<stop offset="1" stop-color="#06325F" stop-opacity="0"/>
</linearGradient>
<linearGradient id="paint37_linear_201_26" x1="1063" y1="0" x2="1063" y2="595.556" gradientUnits="userSpaceOnUse">
<stop stop-color="#2293CD"/>
<stop offset="1" stop-color="#06325F" stop-opacity="0"/>
</linearGradient>
<linearGradient id="paint38_linear_201_26" x1="1063" y1="0" x2="1063" y2="595.556" gradientUnits="userSpaceOnUse">
<stop stop-color="#2293CD"/>
<stop offset="1" stop-color="#06325F" stop-opacity="0"/>
</linearGradient>
<linearGradient id="paint39_linear_201_26" x1="1063" y1="0" x2="1063" y2="595.556" gradientUnits="userSpaceOnUse">
<stop stop-color="#2293CD"/>
<stop offset="1" stop-color="#06325F" stop-opacity="0"/>
</linearGradient>
<linearGradient id="paint40_linear_201_26" x1="1063" y1="0" x2="1063" y2="595.556" gradientUnits="userSpaceOnUse">
<stop stop-color="#2293CD"/>
<stop offset="1" stop-color="#06325F" stop-opacity="0"/>
</linearGradient>
<linearGradient id="paint41_linear_201_26" x1="1063" y1="0" x2="1063" y2="595.556" gradientUnits="userSpaceOnUse">
<stop stop-color="#2293CD"/>
<stop offset="1" stop-color="#06325F" stop-opacity="0"/>
</linearGradient>
<linearGradient id="paint42_linear_201_26" x1="1063" y1="0" x2="1063" y2="595.556" gradientUnits="userSpaceOnUse">
<stop stop-color="#2293CD"/>
<stop offset="1" stop-color="#06325F" stop-opacity="0"/>
</linearGradient>
<linearGradient id="paint43_linear_201_26" x1="1063" y1="0" x2="1063" y2="595.556" gradientUnits="userSpaceOnUse">
<stop stop-color="#2293CD"/>
<stop offset="1" stop-color="#06325F" stop-opacity="0"/>
</linearGradient>
<linearGradient id="paint44_linear_201_26" x1="1063.01" y1="0" x2="1063.01" y2="595.556" gradientUnits="userSpaceOnUse">
<stop stop-color="#2293CD"/>
<stop offset="1" stop-color="#06325F" stop-opacity="0"/>
</linearGradient>
<linearGradient id="paint45_linear_201_26" x1="1063" y1="0" x2="1063" y2="595.556" gradientUnits="userSpaceOnUse">
<stop stop-color="#2293CD"/>
<stop offset="1" stop-color="#06325F" stop-opacity="0"/>
</linearGradient>
<linearGradient id="paint46_linear_201_26" x1="1062.99" y1="0" x2="1062.99" y2="595.556" gradientUnits="userSpaceOnUse">
<stop stop-color="#2293CD"/>
<stop offset="1" stop-color="#06325F" stop-opacity="0"/>
</linearGradient>
<linearGradient id="paint47_linear_201_26" x1="1063.01" y1="0" x2="1063.01" y2="595.556" gradientUnits="userSpaceOnUse">
<stop stop-color="#2293CD"/>
<stop offset="1" stop-color="#06325F" stop-opacity="0"/>
</linearGradient>
<linearGradient id="paint48_linear_201_26" x1="1063" y1="0" x2="1063" y2="595.556" gradientUnits="userSpaceOnUse">
<stop stop-color="#2293CD"/>
<stop offset="1" stop-color="#06325F" stop-opacity="0"/>
</linearGradient>
<linearGradient id="paint49_linear_201_26" x1="1063.01" y1="0" x2="1063.01" y2="595.556" gradientUnits="userSpaceOnUse">
<stop stop-color="#2293CD"/>
<stop offset="1" stop-color="#06325F" stop-opacity="0"/>
</linearGradient>
<linearGradient id="paint50_linear_201_26" x1="1063" y1="0" x2="1063" y2="595.556" gradientUnits="userSpaceOnUse">
<stop stop-color="#2293CD"/>
<stop offset="1" stop-color="#06325F" stop-opacity="0"/>
</linearGradient>
<linearGradient id="paint51_linear_201_26" x1="1063" y1="0" x2="1063" y2="595.556" gradientUnits="userSpaceOnUse">
<stop stop-color="#2293CD"/>
<stop offset="1" stop-color="#06325F" stop-opacity="0"/>
</linearGradient>
<linearGradient id="paint52_linear_201_26" x1="1063.01" y1="0" x2="1063.01" y2="595.556" gradientUnits="userSpaceOnUse">
<stop stop-color="#2293CD"/>
<stop offset="1" stop-color="#06325F" stop-opacity="0"/>
</linearGradient>
<linearGradient id="paint53_linear_201_26" x1="1063" y1="0" x2="1063" y2="595.556" gradientUnits="userSpaceOnUse">
<stop stop-color="#2293CD"/>
<stop offset="1" stop-color="#06325F" stop-opacity="0"/>
</linearGradient>
<linearGradient id="paint54_linear_201_26" x1="1063" y1="0" x2="1063" y2="595.556" gradientUnits="userSpaceOnUse">
<stop stop-color="#2293CD"/>
<stop offset="1" stop-color="#06325F" stop-opacity="0"/>
</linearGradient>
<linearGradient id="paint55_linear_201_26" x1="1063" y1="0" x2="1063" y2="595.556" gradientUnits="userSpaceOnUse">
<stop stop-color="#2293CD"/>
<stop offset="1" stop-color="#06325F" stop-opacity="0"/>
</linearGradient>
<linearGradient id="paint56_linear_201_26" x1="1063" y1="0" x2="1063" y2="595.556" gradientUnits="userSpaceOnUse">
<stop stop-color="#2293CD"/>
<stop offset="1" stop-color="#06325F" stop-opacity="0"/>
</linearGradient>
<linearGradient id="paint57_linear_201_26" x1="1063" y1="0" x2="1063" y2="595.556" gradientUnits="userSpaceOnUse">
<stop stop-color="#2293CD"/>
<stop offset="1" stop-color="#06325F" stop-opacity="0"/>
</linearGradient>
<linearGradient id="paint58_linear_201_26" x1="1062.99" y1="0" x2="1062.99" y2="595.556" gradientUnits="userSpaceOnUse">
<stop stop-color="#2293CD"/>
<stop offset="1" stop-color="#06325F" stop-opacity="0"/>
</linearGradient>
<linearGradient id="paint59_linear_201_26" x1="1063" y1="0" x2="1063" y2="595.556" gradientUnits="userSpaceOnUse">
<stop stop-color="#2293CD"/>
<stop offset="1" stop-color="#06325F" stop-opacity="0"/>
</linearGradient>
<linearGradient id="paint60_linear_201_26" x1="1063" y1="0" x2="1063" y2="595.556" gradientUnits="userSpaceOnUse">
<stop stop-color="#2293CD"/>
<stop offset="1" stop-color="#06325F" stop-opacity="0"/>
</linearGradient>
<linearGradient id="paint61_linear_201_26" x1="1063.01" y1="0" x2="1063.01" y2="595.556" gradientUnits="userSpaceOnUse">
<stop stop-color="#2293CD"/>
<stop offset="1" stop-color="#06325F" stop-opacity="0"/>
</linearGradient>
<linearGradient id="paint62_linear_201_26" x1="1063" y1="0" x2="1063" y2="595.556" gradientUnits="userSpaceOnUse">
<stop stop-color="#2293CD"/>
<stop offset="1" stop-color="#06325F" stop-opacity="0"/>
</linearGradient>
<linearGradient id="paint63_linear_201_26" x1="1063" y1="0" x2="1063" y2="595.556" gradientUnits="userSpaceOnUse">
<stop stop-color="#2293CD"/>
<stop offset="1" stop-color="#06325F" stop-opacity="0"/>
</linearGradient>
<linearGradient id="paint64_linear_201_26" x1="1063" y1="0" x2="1063" y2="595.556" gradientUnits="userSpaceOnUse">
<stop stop-color="#2293CD"/>
<stop offset="1" stop-color="#06325F" stop-opacity="0"/>
</linearGradient>
<linearGradient id="paint65_linear_201_26" x1="1063" y1="0" x2="1063" y2="595.556" gradientUnits="userSpaceOnUse">
<stop stop-color="#2293CD"/>
<stop offset="1" stop-color="#06325F" stop-opacity="0"/>
</linearGradient>
<linearGradient id="paint66_linear_201_26" x1="1063" y1="0" x2="1063" y2="595.556" gradientUnits="userSpaceOnUse">
<stop stop-color="#2293CD"/>
<stop offset="1" stop-color="#06325F" stop-opacity="0"/>
</linearGradient>
<linearGradient id="paint67_linear_201_26" x1="1831.4" y1="0" x2="1831.4" y2="593.676" gradientUnits="userSpaceOnUse">
<stop stop-color="#2293CD"/>
<stop offset="1" stop-color="#06325F" stop-opacity="0"/>
</linearGradient>
<linearGradient id="paint68_linear_201_26" x1="1063" y1="0" x2="1063" y2="595.556" gradientUnits="userSpaceOnUse">
<stop stop-color="#2293CD"/>
<stop offset="1" stop-color="#06325F" stop-opacity="0"/>
</linearGradient>
<linearGradient id="paint69_linear_201_26" x1="1063" y1="0" x2="1063" y2="595.556" gradientUnits="userSpaceOnUse">
<stop stop-color="#2293CD"/>
<stop offset="1" stop-color="#06325F" stop-opacity="0"/>
</linearGradient>
<linearGradient id="paint70_linear_201_26" x1="1063.01" y1="0" x2="1063.01" y2="595.556" gradientUnits="userSpaceOnUse">
<stop stop-color="#2293CD"/>
<stop offset="1" stop-color="#06325F" stop-opacity="0"/>
</linearGradient>
<linearGradient id="paint71_linear_201_26" x1="1063" y1="0" x2="1063" y2="595.556" gradientUnits="userSpaceOnUse">
<stop stop-color="#2293CD"/>
<stop offset="1" stop-color="#06325F" stop-opacity="0"/>
</linearGradient>
<linearGradient id="paint72_linear_201_26" x1="1063" y1="0" x2="1063" y2="595.556" gradientUnits="userSpaceOnUse">
<stop stop-color="#2293CD"/>
<stop offset="1" stop-color="#06325F" stop-opacity="0"/>
</linearGradient>
<linearGradient id="paint73_linear_201_26" x1="1063.01" y1="0" x2="1063.01" y2="595.556" gradientUnits="userSpaceOnUse">
<stop stop-color="#2293CD"/>
<stop offset="1" stop-color="#06325F" stop-opacity="0"/>
</linearGradient>
<linearGradient id="paint74_linear_201_26" x1="1063" y1="0" x2="1063" y2="595.556" gradientUnits="userSpaceOnUse">
<stop stop-color="#2293CD"/>
<stop offset="1" stop-color="#06325F" stop-opacity="0"/>
</linearGradient>
<linearGradient id="paint75_linear_201_26" x1="1063" y1="0" x2="1063" y2="595.556" gradientUnits="userSpaceOnUse">
<stop stop-color="#2293CD"/>
<stop offset="1" stop-color="#06325F" stop-opacity="0"/>
</linearGradient>
<linearGradient id="paint76_linear_201_26" x1="1063.01" y1="0" x2="1063.01" y2="595.556" gradientUnits="userSpaceOnUse">
<stop stop-color="#2293CD"/>
<stop offset="1" stop-color="#06325F" stop-opacity="0"/>
</linearGradient>
<linearGradient id="paint77_linear_201_26" x1="1063" y1="0" x2="1063" y2="595.556" gradientUnits="userSpaceOnUse">
<stop stop-color="#2293CD"/>
<stop offset="1" stop-color="#06325F" stop-opacity="0"/>
</linearGradient>
<linearGradient id="paint78_linear_201_26" x1="1831.4" y1="0" x2="1831.4" y2="593.676" gradientUnits="userSpaceOnUse">
<stop stop-color="#2293CD"/>
<stop offset="1" stop-color="#06325F" stop-opacity="0"/>
</linearGradient>
<linearGradient id="paint79_linear_201_26" x1="1063" y1="0" x2="1063" y2="595.556" gradientUnits="userSpaceOnUse">
<stop stop-color="#2293CD"/>
<stop offset="1" stop-color="#06325F" stop-opacity="0"/>
</linearGradient>
<linearGradient id="paint80_linear_201_26" x1="1063" y1="0" x2="1063" y2="595.556" gradientUnits="userSpaceOnUse">
<stop stop-color="#2293CD"/>
<stop offset="1" stop-color="#06325F" stop-opacity="0"/>
</linearGradient>
<linearGradient id="paint81_linear_201_26" x1="1063.01" y1="0" x2="1063.01" y2="595.556" gradientUnits="userSpaceOnUse">
<stop stop-color="#2293CD"/>
<stop offset="1" stop-color="#06325F" stop-opacity="0"/>
</linearGradient>
<linearGradient id="paint82_linear_201_26" x1="1831.4" y1="0" x2="1831.4" y2="593.676" gradientUnits="userSpaceOnUse">
<stop stop-color="#2293CD"/>
<stop offset="1" stop-color="#06325F" stop-opacity="0"/>
</linearGradient>
<linearGradient id="paint83_linear_201_26" x1="1063" y1="0" x2="1063" y2="595.556" gradientUnits="userSpaceOnUse">
<stop stop-color="#2293CD"/>
<stop offset="1" stop-color="#06325F" stop-opacity="0"/>
</linearGradient>
<linearGradient id="paint84_linear_201_26" x1="1063" y1="0" x2="1063" y2="595.556" gradientUnits="userSpaceOnUse">
<stop stop-color="#2293CD"/>
<stop offset="1" stop-color="#06325F" stop-opacity="0"/>
</linearGradient>
<linearGradient id="paint85_linear_201_26" x1="1063.01" y1="0" x2="1063.01" y2="595.556" gradientUnits="userSpaceOnUse">
<stop stop-color="#2293CD"/>
<stop offset="1" stop-color="#06325F" stop-opacity="0"/>
</linearGradient>
<linearGradient id="paint86_linear_201_26" x1="1063" y1="0" x2="1063" y2="595.556" gradientUnits="userSpaceOnUse">
<stop stop-color="#2293CD"/>
<stop offset="1" stop-color="#06325F" stop-opacity="0"/>
</linearGradient>
<linearGradient id="paint87_linear_201_26" x1="1831.4" y1="0" x2="1831.4" y2="593.676" gradientUnits="userSpaceOnUse">
<stop stop-color="#2293CD"/>
<stop offset="1" stop-color="#06325F" stop-opacity="0"/>
</linearGradient>
<linearGradient id="paint88_linear_201_26" x1="1063.01" y1="0" x2="1063.01" y2="595.556" gradientUnits="userSpaceOnUse">
<stop stop-color="#2293CD"/>
<stop offset="1" stop-color="#06325F" stop-opacity="0"/>
</linearGradient>
<linearGradient id="paint89_linear_201_26" x1="1063" y1="0" x2="1063" y2="595.556" gradientUnits="userSpaceOnUse">
<stop stop-color="#2293CD"/>
<stop offset="1" stop-color="#06325F" stop-opacity="0"/>
</linearGradient>
<linearGradient id="paint90_linear_201_26" x1="1063.01" y1="0" x2="1063.01" y2="595.556" gradientUnits="userSpaceOnUse">
<stop stop-color="#2293CD"/>
<stop offset="1" stop-color="#06325F" stop-opacity="0"/>
</linearGradient>
<linearGradient id="paint91_linear_201_26" x1="1063" y1="0" x2="1063" y2="595.556" gradientUnits="userSpaceOnUse">
<stop stop-color="#2293CD"/>
<stop offset="1" stop-color="#06325F" stop-opacity="0"/>
</linearGradient>
<linearGradient id="paint92_linear_201_26" x1="1063" y1="0" x2="1063" y2="595.556" gradientUnits="userSpaceOnUse">
<stop stop-color="#2293CD"/>
<stop offset="1" stop-color="#06325F" stop-opacity="0"/>
</linearGradient>
<linearGradient id="paint93_linear_201_26" x1="1063.01" y1="0" x2="1063.01" y2="595.556" gradientUnits="userSpaceOnUse">
<stop stop-color="#2293CD"/>
<stop offset="1" stop-color="#06325F" stop-opacity="0"/>
</linearGradient>
<linearGradient id="paint94_linear_201_26" x1="1831.4" y1="0" x2="1831.4" y2="593.676" gradientUnits="userSpaceOnUse">
<stop stop-color="#2293CD"/>
<stop offset="1" stop-color="#06325F" stop-opacity="0"/>
</linearGradient>
<linearGradient id="paint95_linear_201_26" x1="1063" y1="0" x2="1063" y2="595.556" gradientUnits="userSpaceOnUse">
<stop stop-color="#2293CD"/>
<stop offset="1" stop-color="#06325F" stop-opacity="0"/>
</linearGradient>
<linearGradient id="paint96_linear_201_26" x1="1063" y1="0" x2="1063" y2="595.556" gradientUnits="userSpaceOnUse">
<stop stop-color="#2293CD"/>
<stop offset="1" stop-color="#06325F" stop-opacity="0"/>
</linearGradient>
<linearGradient id="paint97_linear_201_26" x1="1063.01" y1="0" x2="1063.01" y2="595.556" gradientUnits="userSpaceOnUse">
<stop stop-color="#2293CD"/>
<stop offset="1" stop-color="#06325F" stop-opacity="0"/>
</linearGradient>
<linearGradient id="paint98_linear_201_26" x1="1063" y1="0" x2="1063" y2="595.556" gradientUnits="userSpaceOnUse">
<stop stop-color="#2293CD"/>
<stop offset="1" stop-color="#06325F" stop-opacity="0"/>
</linearGradient>
<linearGradient id="paint99_linear_201_26" x1="1831.4" y1="0" x2="1831.4" y2="593.676" gradientUnits="userSpaceOnUse">
<stop stop-color="#2293CD"/>
<stop offset="1" stop-color="#06325F" stop-opacity="0"/>
</linearGradient>
</defs>
</svg>
