<svg width="30" height="30" viewBox="0 0 30 30" fill="none" xmlns="http://www.w3.org/2000/svg">
<path d="M1.2501 12.4985C0.918556 12.4985 0.600587 12.3668 0.366147 12.1324C0.131707 11.898 0 11.58 0 11.2484V1.2501C0 0.918556 0.131707 0.600587 0.366147 0.366147C0.600587 0.131707 0.918556 0 1.2501 0H11.2509C11.5825 0 11.9005 0.131707 12.1349 0.366147C12.3693 0.600587 12.501 0.918556 12.501 1.2501V11.2484C12.501 11.58 12.3693 11.898 12.1349 12.1324C11.9005 12.3668 11.5825 12.4985 11.2509 12.4985H1.2501ZM18.7516 12.4985C18.42 12.4985 18.102 12.3668 17.8676 12.1324C17.6332 11.898 17.5015 11.58 17.5015 11.2484V1.2501C17.5015 0.918556 17.6332 0.600587 17.8676 0.366147C18.102 0.131707 18.42 0 18.7516 0H28.7499C29.0814 0 29.3994 0.131707 29.6339 0.366147C29.8683 0.600587 30 0.918556 30 1.2501V11.2484C30 11.58 29.8683 11.898 29.6339 12.1324C29.3994 12.3668 29.0814 12.4985 28.7499 12.4985H18.7516ZM1.2501 30C0.918556 30 0.600587 29.8683 0.366147 29.6339C0.131707 29.3994 0 29.0814 0 28.7499V18.7491C0 18.4175 0.131707 18.0995 0.366147 17.8651C0.600587 17.6307 0.918556 17.499 1.2501 17.499H11.2509C11.5825 17.499 11.9005 17.6307 12.1349 17.8651C12.3693 18.0995 12.501 18.4175 12.501 18.7491V28.7499C12.501 29.0814 12.3693 29.3994 12.1349 29.6339C11.9005 29.8683 11.5825 30 11.2509 30H1.2501ZM18.7516 30C18.42 30 18.102 29.8683 17.8676 29.6339C17.6332 29.3994 17.5015 29.0814 17.5015 28.7499V18.7491C17.5015 18.4175 17.6332 18.0995 17.8676 17.8651C18.102 17.6307 18.42 17.499 18.7516 17.499H28.7499C29.0814 17.499 29.3994 17.6307 29.6339 17.8651C29.8683 18.0995 30 18.4175 30 18.7491V28.7499C30 29.0814 29.8683 29.3994 29.6339 29.6339C29.3994 29.8683 29.0814 30 28.7499 30H18.7516Z" fill="white"/>
</svg>
