<svg width="242" height="42" viewBox="0 0 242 42" fill="none" xmlns="http://www.w3.org/2000/svg">
<path d="M194.285 38.54C195.065 38.54 195.705 39.18 195.705 39.96C195.705 40.72 195.065 41.36 194.285 41.36C193.505 41.36 192.885 40.72 192.885 39.96C192.885 39.18 193.505 38.54 194.285 38.54Z" fill="#199FD6"/>
<path d="M203.438 41.36C201.638 41.36 199.838 40.68 198.478 39.32C197.158 37.98 196.438 36.22 196.438 34.36C196.438 32.48 197.158 30.72 198.478 29.4C201.218 26.66 205.658 26.66 208.398 29.4V29.42L206.418 31.4C206.398 31.4 206.398 31.4 206.398 31.4C204.758 29.78 202.118 29.78 200.478 31.4C199.698 32.2 199.258 33.24 199.258 34.36C199.258 35.48 199.698 36.52 200.478 37.32C202.118 38.94 204.758 38.94 206.398 37.32C206.398 37.3 206.398 37.3 206.418 37.32L208.398 39.3C208.398 39.3 208.398 39.3 208.398 39.32C207.018 40.68 205.238 41.36 203.438 41.36Z" fill="#199FD6"/>
<path d="M216.952 41.36C213.092 41.36 209.952 38.22 209.952 34.36C209.952 30.5 213.092 27.36 216.952 27.36C220.812 27.36 223.952 30.5 223.952 34.36C223.952 38.22 220.812 41.36 216.952 41.36ZM212.772 34.36C212.772 36.66 214.652 38.54 216.952 38.54C219.252 38.54 221.132 36.66 221.132 34.36C221.132 32.06 219.252 30.18 216.952 30.18C214.652 30.18 212.772 32.06 212.772 34.36Z" fill="#199FD6"/>
<path d="M237.437 41.36V31.94L232.897 39.3C232.877 39.3 232.877 39.3 232.857 39.3L228.317 31.94V41.36H228.297H225.497V27.36H228.797L232.877 33.94L236.957 27.36H240.257H240.277V41.36H240.257H237.457H237.437Z" fill="#199FD6"/>
<path d="M0 41.576H5.49014L9.94881 34.3889L14.3742 41.576C14.3742 41.576 14.3742 41.576 14.4075 41.576H19.8643H19.8976V41.5427L12.7105 29.9303L19.8976 18.3178C19.8976 18.2845 19.8976 18.2845 19.8976 18.2845H19.8643H14.4075C14.3742 18.2845 14.3742 18.2845 14.3742 18.2845L9.91553 25.5049L7.1871 29.9303L4.69158 33.9564V18.2845H4.6583H0V41.576Z" fill="white"/>
<path d="M24.5978 41.576H29.2561H29.2893V32.2594H39.8038V41.576H44.4621C44.4954 41.576 44.4954 41.576 44.4954 41.576V18.2845C44.4954 18.2845 44.4954 18.2512 44.4621 18.2512H39.8038V18.2845V27.5678H29.2893V18.2845L29.2561 18.2512H24.5978V18.2845V41.576Z" fill="white"/>
<path d="M56.6821 41.576H61.5733H61.6066L69.0931 18.2845H69.0599H64.1687L59.1443 33.8898L54.12 18.2845H54.0868H49.1955C49.1623 18.2845 49.1955 18.2845 49.1955 18.2845L56.6821 41.576Z" fill="white"/>
<path d="M73.7933 41.576H78.4516C78.4516 41.576 78.4849 41.576 78.4849 41.5427V18.2845L78.4516 18.2512H73.7933V18.2845V41.5427C73.7933 41.576 73.7933 41.576 73.7933 41.576Z" fill="white"/>
<path d="M94.8298 41.576C97.8244 41.576 100.786 40.4447 103.082 38.1821C103.082 38.1488 103.082 38.1488 103.082 38.1488L99.7875 34.8547C99.7542 34.8215 99.7542 34.8215 99.7542 34.8547C97.0258 37.5499 92.6337 37.5499 89.9053 34.8547C88.6076 33.5238 87.8756 31.7936 87.8756 29.9303C87.8756 28.0669 88.6076 26.3367 89.9053 25.0058C92.6337 22.3106 97.0258 22.3106 99.7542 25.0058C99.7542 25.0058 99.7542 25.0058 99.7875 25.0058L103.082 21.7117V21.6784C98.5231 17.1199 91.1364 17.1199 86.5779 21.6784C84.3818 23.8745 83.184 26.8025 83.184 29.9303C83.184 33.0247 84.3818 35.9528 86.5779 38.1821C88.8405 40.4447 91.8351 41.576 94.8298 41.576Z" fill="white"/>
<path d="M107.457 41.576H112.115H112.148V32.2594H122.663V41.576H127.321C127.354 41.576 127.354 41.576 127.354 41.576V18.2845C127.354 18.2845 127.354 18.2512 127.321 18.2512H122.663V18.2845V27.5678H112.148V18.2845L112.115 18.2512H107.457V18.2845V41.576Z" fill="white"/>
<path d="M132.291 41.576H137.182H137.216L138.214 38.415H146.233L147.264 41.576H152.155H152.189C152.189 41.576 152.189 41.576 152.189 41.5427L144.702 18.2845H144.669H139.778L132.291 41.5427C132.258 41.576 132.291 41.576 132.291 41.576ZM139.744 33.6902L142.24 25.9707L144.702 33.6902H139.744Z" fill="white"/>
<path d="M156.169 22.9761H167.648L156.169 41.5427V41.576H161.659L176.067 18.3178C176.067 18.2845 176.067 18.2845 176.067 18.2845H176.033H156.169V22.9428V22.9761Z" fill="white"/>
<path d="M176.921 22.9761H189.582L178.102 41.5427V41.576H183.592L198 18.3178C198 18.2845 198 18.2845 198 18.2845H197.967L179.693 18.4361L176.921 22.9761Z" fill="white"/>
<path d="M9.85484 0.0899997H12.0148L11.6248 1.905C11.5648 2.195 11.4798 2.45 11.3698 2.67C11.2698 2.89 11.1448 3.085 10.9948 3.255C10.8448 3.425 10.6648 3.58 10.4548 3.72C10.2448 3.86 10.0048 3.995 9.73484 4.125C10.2448 4.305 10.5948 4.53 10.7848 4.8C10.9748 5.06 11.0698 5.35 11.0698 5.67C11.0698 5.84 11.0448 6.04 10.9948 6.27L9.92984 11.34H4.12484C3.17484 11.34 2.44984 11.155 1.94984 10.785C1.45984 10.415 1.21484 9.87 1.21484 9.15C1.21484 8.9 1.24484 8.63 1.30484 8.34L1.76984 6.12H3.92984L3.53984 7.995C3.49984 8.165 3.47984 8.345 3.47984 8.535C3.47984 9.175 3.89484 9.495 4.72484 9.495H8.15984L8.78984 6.51C8.81984 6.36 8.83484 6.225 8.83484 6.105C8.83484 5.785 8.71984 5.57 8.48984 5.46C8.26984 5.34 7.91984 5.28 7.43984 5.28H5.42984L5.83484 3.435H7.87484C8.11484 3.435 8.32484 3.405 8.50484 3.345C8.68484 3.275 8.83484 3.185 8.95484 3.075C9.07484 2.965 9.16984 2.84 9.23984 2.7C9.30984 2.56 9.35984 2.415 9.38984 2.265L9.85484 0.0899997Z" fill="white"/>
<path d="M22.7001 2.64C22.6301 2.95 22.5401 3.22 22.4301 3.45C22.3301 3.67 22.2051 3.87 22.0551 4.05C21.9051 4.23 21.7251 4.395 21.5151 4.545C21.3051 4.685 21.0601 4.825 20.7801 4.965C21.2901 5.145 21.6401 5.37 21.8301 5.64C22.0201 5.9 22.1151 6.19 22.1151 6.51C22.1151 6.68 22.0901 6.88 22.0401 7.11L21.1551 11.34H15.1401C14.1901 11.34 13.4651 11.155 12.9651 10.785C12.4751 10.415 12.2301 9.87 12.2301 9.15C12.2301 8.9 12.2601 8.63 12.3201 8.34L12.7851 6.12H14.9451L14.5551 7.995C14.5151 8.165 14.4951 8.345 14.4951 8.535C14.4951 9.175 14.9101 9.495 15.7401 9.495H19.3851L19.8351 7.35C19.8651 7.2 19.8801 7.065 19.8801 6.945C19.8801 6.625 19.7651 6.41 19.5351 6.3C19.3151 6.18 18.9651 6.12 18.4851 6.12H16.6551L17.0601 4.275H18.9201C19.2001 4.275 19.4401 4.23 19.6401 4.14C19.8401 4.05 20.0001 3.935 20.1201 3.795C20.2401 3.645 20.3251 3.485 20.3751 3.315C20.4351 3.135 20.4651 2.96 20.4651 2.79C20.4651 2.56 20.3901 2.36 20.2401 2.19C20.0901 2.02 19.8151 1.935 19.4151 1.935H17.6151C17.2351 1.935 16.9251 1.955 16.6851 1.995C16.4551 2.025 16.2651 2.09 16.1151 2.19C15.9651 2.28 15.8501 2.405 15.7701 2.565C15.7001 2.715 15.6401 2.91 15.5901 3.15L15.4851 3.645H13.3251L13.4751 2.94C13.5751 2.46 13.7551 2.045 14.0151 1.695C14.2751 1.335 14.5851 1.04 14.9451 0.81C15.3051 0.570001 15.7001 0.39 16.1301 0.27C16.5701 0.15 17.0101 0.0899997 17.4501 0.0899997H20.0001C20.3901 0.0899997 20.7501 0.14 21.0801 0.24C21.4101 0.330001 21.6951 0.47 21.9351 0.66C22.1851 0.85 22.3751 1.08 22.5051 1.35C22.6451 1.62 22.7151 1.93 22.7151 2.28C22.7151 2.48 22.6951 2.675 22.6551 2.865L22.7001 2.64Z" fill="white"/>
<path d="M31.0586 3.6C30.0486 3.45 29.2286 3.265 28.5986 3.045C27.9786 2.825 27.4986 2.59 27.1586 2.34C26.8186 2.08 26.5886 1.815 26.4686 1.545C26.3586 1.275 26.3036 1.01 26.3036 0.75C26.3036 0.63 26.3136 0.515 26.3336 0.405C26.3536 0.295 26.3736 0.185 26.3936 0.0749999H28.5536C28.5636 0.155 28.5786 0.25 28.5986 0.36C28.6186 0.46 28.6736 0.57 28.7636 0.69C28.8636 0.8 29.0136 0.92 29.2136 1.05C29.4136 1.17 29.6936 1.295 30.0536 1.425C30.4236 1.545 30.8886 1.675 31.4486 1.815C32.0086 1.945 32.6986 2.07 33.5186 2.19L31.5836 11.34H26.7236C26.1436 11.34 25.6436 11.305 25.2236 11.235C24.8036 11.165 24.4586 11.045 24.1886 10.875C23.9186 10.705 23.7186 10.48 23.5886 10.2C23.4586 9.92 23.3936 9.57 23.3936 9.15C23.3936 8.75 23.4536 8.27 23.5736 7.71L23.9036 6.12H26.0636L25.7336 7.71C25.6736 8 25.6436 8.24 25.6436 8.43C25.6436 8.83 25.7586 9.11 25.9886 9.27C26.2286 9.42 26.6036 9.495 27.1136 9.495H29.8136L31.0586 3.6Z" fill="white"/>
<path d="M39.9566 6.285H36.8516L35.7866 11.34H33.6266L35.1266 4.26C35.2866 3.5 35.5066 2.855 35.7866 2.325C36.0766 1.795 36.4316 1.365 36.8516 1.035C37.2816 0.705 37.7916 0.465 38.3816 0.315C38.9716 0.165 39.6566 0.0899997 40.4366 0.0899997H47.4116L47.0216 1.935H40.0466C39.6366 1.935 39.2766 1.97 38.9666 2.04C38.6666 2.1 38.4066 2.22 38.1866 2.4C37.9766 2.57 37.7966 2.805 37.6466 3.105C37.5066 3.405 37.3866 3.79 37.2866 4.26L37.2416 4.44H44.0216C44.6316 4.44 45.1516 4.47 45.5816 4.53C46.0116 4.59 46.3616 4.7 46.6316 4.86C46.9016 5.01 47.0966 5.22 47.2166 5.49C47.3466 5.76 47.4116 6.1 47.4116 6.51C47.4116 6.95 47.3416 7.51 47.2016 8.19L46.5416 11.34H44.3816L45.0416 8.19C45.0916 7.92 45.1366 7.69 45.1766 7.5C45.2166 7.3 45.2316 7.13 45.2216 6.99C45.2216 6.82 45.1916 6.69 45.1316 6.6C45.0816 6.5 44.9916 6.43 44.8616 6.39C44.7416 6.34 44.5766 6.31 44.3666 6.3C44.1666 6.29 43.9216 6.285 43.6316 6.285H42.1166L41.4416 9.495H39.2816L39.9566 6.285Z" fill="white"/>
<path d="M55.961 3.6C54.951 3.45 54.131 3.265 53.501 3.045C52.881 2.825 52.401 2.59 52.061 2.34C51.721 2.08 51.491 1.815 51.371 1.545C51.261 1.275 51.206 1.01 51.206 0.75C51.206 0.63 51.216 0.515 51.236 0.405C51.256 0.295 51.276 0.185 51.296 0.0749999H53.456C53.466 0.155 53.481 0.25 53.501 0.36C53.521 0.46 53.576 0.57 53.666 0.69C53.766 0.8 53.916 0.92 54.116 1.05C54.316 1.17 54.596 1.295 54.956 1.425C55.326 1.545 55.791 1.675 56.351 1.815C56.911 1.945 57.601 2.07 58.421 2.19L56.486 11.34H51.626C51.046 11.34 50.546 11.305 50.126 11.235C49.706 11.165 49.361 11.045 49.091 10.875C48.821 10.705 48.621 10.48 48.491 10.2C48.361 9.92 48.296 9.57 48.296 9.15C48.296 8.75 48.356 8.27 48.476 7.71L48.806 6.12H50.966L50.636 7.71C50.576 8 50.546 8.24 50.546 8.43C50.546 8.83 50.661 9.11 50.891 9.27C51.131 9.42 51.506 9.495 52.016 9.495H54.716L55.961 3.6Z" fill="white"/>
<path d="M67.6789 9.495L68.0989 7.5C68.1389 7.34 68.1589 7.175 68.1589 7.005C68.1589 6.655 68.0289 6.4 67.7689 6.24C67.5189 6.08 67.0839 6 66.4639 6H64.5289L64.9189 4.155H67.3339C67.9639 4.155 68.4039 4.03 68.6539 3.78C68.9139 3.53 69.0439 3.24 69.0439 2.91C69.0439 2.72 68.9639 2.575 68.8039 2.475C68.6539 2.375 68.3439 2.325 67.8739 2.325H67.3639C66.9639 2.325 66.6239 2.29 66.3439 2.22C66.0739 2.14 65.8539 2.035 65.6839 1.905C65.5139 1.765 65.3889 1.6 65.3089 1.41C65.2389 1.22 65.2039 1.005 65.2039 0.765C65.2039 0.655 65.2089 0.545 65.2189 0.435C65.2289 0.325 65.2489 0.21 65.2789 0.0899997H67.2889C67.2789 0.12 67.2739 0.16 67.2739 0.21C67.2739 0.29 67.3089 0.355 67.3789 0.405C67.4589 0.455 67.6139 0.48 67.8439 0.48H68.2489C69.2989 0.48 70.0389 0.625 70.4689 0.915C70.9089 1.205 71.1289 1.645 71.1289 2.235C71.1289 2.275 71.1239 2.365 71.1139 2.505C71.1139 2.645 71.0939 2.81 71.0539 3C71.0139 3.18 70.9489 3.38 70.8589 3.6C70.7689 3.82 70.6389 4.03 70.4689 4.23C70.3089 4.42 70.0989 4.595 69.8389 4.755C69.5789 4.905 69.2639 5.01 68.8939 5.07C69.4039 5.18 69.7789 5.36 70.0189 5.61C70.2589 5.85 70.3789 6.19 70.3789 6.63C70.3789 6.85 70.3489 7.095 70.2889 7.365L69.4489 11.34H62.6989C62.0489 11.34 61.5089 11.27 61.0789 11.13C60.6589 10.99 60.3189 10.8 60.0589 10.56C59.8089 10.31 59.6289 10.015 59.5189 9.675C59.4189 9.335 59.3689 8.965 59.3689 8.565C59.3689 8.305 59.3839 8.04 59.4139 7.77C59.4539 7.5 59.5039 7.22 59.5639 6.93L61.0189 0.0899997H63.1789L61.7239 6.93C61.6839 7.09 61.6539 7.25 61.6339 7.41C61.6239 7.56 61.6189 7.705 61.6189 7.845C61.6189 8.075 61.6439 8.29 61.6939 8.49C61.7439 8.69 61.8239 8.865 61.9339 9.015C62.0539 9.165 62.2089 9.285 62.3989 9.375C62.5889 9.455 62.8189 9.495 63.0889 9.495H67.6789Z" fill="white"/>
<path d="M75.0467 11.34C74.6267 11.34 74.2367 11.3 73.8767 11.22C73.5167 11.13 73.2067 10.995 72.9467 10.815C72.6967 10.635 72.4967 10.405 72.3467 10.125C72.2067 9.845 72.1367 9.51 72.1367 9.12C72.1367 8.89 72.1667 8.63 72.2267 8.34L73.9817 0.0899997H76.1417L75.2117 4.44H79.2767C80.1967 4.44 80.9117 4.615 81.4217 4.965C81.9317 5.305 82.1867 5.85 82.1867 6.6C82.1867 6.86 82.1567 7.14 82.0967 7.44L81.9017 8.34C81.7917 8.87 81.6067 9.325 81.3467 9.705C81.0867 10.075 80.7767 10.385 80.4167 10.635C80.0567 10.875 79.6567 11.055 79.2167 11.175C78.7767 11.285 78.3117 11.34 77.8217 11.34H75.0467ZM74.8217 6.285L74.4467 8.025C74.4067 8.185 74.3867 8.345 74.3867 8.505C74.3867 8.855 74.5117 9.11 74.7617 9.27C75.0217 9.42 75.4667 9.495 76.0967 9.495H77.5517C77.9317 9.495 78.2517 9.47 78.5117 9.42C78.7717 9.36 78.9867 9.27 79.1567 9.15C79.3267 9.03 79.4617 8.88 79.5617 8.7C79.6617 8.51 79.7417 8.285 79.8017 8.025L79.8617 7.77C79.9017 7.58 79.9217 7.395 79.9217 7.215C79.9217 6.865 79.7917 6.625 79.5317 6.495C79.2717 6.355 78.8267 6.285 78.1967 6.285H74.8217Z" fill="white"/>
<path d="M86.22 11.34C85.8 11.34 85.41 11.3 85.05 11.22C84.69 11.13 84.38 10.995 84.12 10.815C83.87 10.635 83.67 10.405 83.52 10.125C83.38 9.845 83.31 9.51 83.31 9.12C83.31 8.89 83.34 8.63 83.4 8.34L83.865 6.12H86.025L85.62 8.025C85.58 8.185 85.56 8.345 85.56 8.505C85.56 8.855 85.685 9.11 85.935 9.27C86.195 9.42 86.64 9.495 87.27 9.495H90L91.29 3.435C91.33 3.265 91.35 3.09 91.35 2.91C91.35 2.26 90.935 1.935 90.105 1.935H88.425C88.165 1.935 87.935 1.96 87.735 2.01C87.535 2.05 87.36 2.125 87.21 2.235C87.07 2.345 86.95 2.495 86.85 2.685C86.75 2.865 86.67 3.1 86.61 3.39L86.595 3.465H84.435L84.51 3.09C84.6 2.61 84.745 2.185 84.945 1.815C85.145 1.445 85.41 1.135 85.74 0.885C86.07 0.625 86.47 0.43 86.94 0.3C87.42 0.16 87.975 0.0899997 88.605 0.0899997H90.705C91.745 0.0899997 92.49 0.245 92.94 0.555C93.4 0.865 93.63 1.365 93.63 2.055C93.63 2.205 93.62 2.365 93.6 2.535C93.58 2.705 93.55 2.89 93.51 3.09L91.77 11.34H86.22Z" fill="white"/>
<path d="M97.192 5.37C97.152 5.53 97.132 5.69 97.132 5.85C97.132 6.3 97.277 6.66 97.567 6.93C97.857 7.19 98.217 7.405 98.647 7.575C99.087 7.745 99.557 7.9 100.057 8.04C100.567 8.18 101.037 8.35 101.467 8.55C101.907 8.75 102.272 9.015 102.562 9.345C102.852 9.665 102.997 10.095 102.997 10.635C102.997 10.745 102.987 10.86 102.967 10.98C102.957 11.09 102.942 11.21 102.922 11.34H100.777C100.747 10.94 100.597 10.62 100.327 10.38C100.057 10.13 99.727 9.94 99.337 9.81C98.947 9.68 98.527 9.595 98.077 9.555C97.637 9.515 97.232 9.495 96.862 9.495H93.967L94.357 7.65H95.392C95.092 7.31 94.942 6.85 94.942 6.27C94.942 5.96 94.987 5.6 95.077 5.19L96.157 0.0899997H102.292C103.242 0.0899997 103.962 0.275 104.452 0.645C104.942 1.015 105.187 1.56 105.187 2.28C105.187 2.54 105.157 2.81 105.097 3.09L104.632 5.295H102.472L102.877 3.435C102.917 3.265 102.937 3.09 102.937 2.91C102.937 2.26 102.522 1.935 101.692 1.935H97.927L97.192 5.37Z" fill="white"/>
<path d="M112.152 11.34L113.832 3.435C113.872 3.265 113.892 3.095 113.892 2.925C113.892 2.535 113.722 2.275 113.382 2.145C113.042 2.005 112.452 1.935 111.612 1.935C111.092 1.935 110.662 1.96 110.322 2.01C109.992 2.06 109.722 2.145 109.512 2.265C109.302 2.375 109.142 2.525 109.032 2.715C108.932 2.905 108.852 3.145 108.792 3.435L107.112 11.34H104.952L106.632 3.435C106.792 2.645 107.037 2.03 107.367 1.59C107.707 1.14 108.107 0.805 108.567 0.585001C109.037 0.365 109.562 0.23 110.142 0.18C110.722 0.12 111.342 0.0899997 112.002 0.0899997C112.592 0.0899997 113.137 0.11 113.637 0.15C114.147 0.19 114.582 0.285 114.942 0.435C115.312 0.585 115.602 0.81 115.812 1.11C116.022 1.4 116.127 1.805 116.127 2.325C116.127 2.645 116.082 3.015 115.992 3.435L114.312 11.34H112.152Z" fill="white"/>
<path d="M124.325 3.6C123.315 3.45 122.495 3.265 121.865 3.045C121.245 2.825 120.765 2.59 120.425 2.34C120.085 2.08 119.855 1.815 119.735 1.545C119.625 1.275 119.57 1.01 119.57 0.75C119.57 0.63 119.58 0.515 119.6 0.405C119.62 0.295 119.64 0.185 119.66 0.0749999H121.82C121.83 0.155 121.845 0.25 121.865 0.36C121.885 0.46 121.94 0.57 122.03 0.69C122.13 0.8 122.28 0.92 122.48 1.05C122.68 1.17 122.96 1.295 123.32 1.425C123.69 1.545 124.155 1.675 124.715 1.815C125.275 1.945 125.965 2.07 126.785 2.19L124.85 11.34H119.99C119.41 11.34 118.91 11.305 118.49 11.235C118.07 11.165 117.725 11.045 117.455 10.875C117.185 10.705 116.985 10.48 116.855 10.2C116.725 9.92 116.66 9.57 116.66 9.15C116.66 8.75 116.72 8.27 116.84 7.71L117.17 6.12H119.33L119 7.71C118.94 8 118.91 8.24 118.91 8.43C118.91 8.83 119.025 9.11 119.255 9.27C119.495 9.42 119.87 9.495 120.38 9.495H123.08L124.325 3.6Z" fill="white"/>
<path d="M131.573 0.0899997L129.938 7.785C129.888 8.035 129.863 8.23 129.863 8.37C129.863 8.82 130.018 9.12 130.328 9.27C130.638 9.42 131.063 9.495 131.603 9.495C132.023 9.495 132.373 9.47 132.653 9.42C132.933 9.37 133.158 9.28 133.328 9.15C133.508 9.01 133.648 8.825 133.748 8.595C133.858 8.355 133.953 8.05 134.033 7.68L134.363 6.12H136.433L135.938 8.46C135.798 9.11 135.578 9.625 135.278 10.005C134.988 10.385 134.638 10.675 134.228 10.875C133.818 11.075 133.353 11.205 132.833 11.265C132.323 11.315 131.783 11.34 131.213 11.34C130.663 11.34 130.168 11.31 129.728 11.25C129.288 11.18 128.913 11.06 128.603 10.89C128.293 10.71 128.053 10.47 127.883 10.17C127.713 9.87 127.628 9.48 127.628 9C127.628 8.63 127.678 8.225 127.778 7.785L129.413 0.0899997H131.573Z" fill="white"/>
<path d="M154.079 9.495L154.454 7.695C154.474 7.605 154.489 7.52 154.499 7.44C154.509 7.36 154.514 7.28 154.514 7.2C154.514 6.91 154.424 6.69 154.244 6.54C154.074 6.38 153.779 6.3 153.359 6.3H152.114L152.459 4.665H153.929C154.179 4.665 154.399 4.61 154.589 4.5C154.779 4.39 154.939 4.245 155.069 4.065C155.199 3.875 155.299 3.665 155.369 3.435C155.439 3.205 155.474 2.97 155.474 2.73C155.474 2.46 155.384 2.26 155.204 2.13C155.024 2 154.719 1.935 154.289 1.935H152.084L151.679 3.825C151.599 4.205 151.439 4.55 151.199 4.86C150.969 5.16 150.684 5.42 150.344 5.64C150.014 5.85 149.634 6.015 149.204 6.135C148.784 6.245 148.344 6.3 147.884 6.3H146.189C145.739 6.3 145.359 6.25 145.049 6.15C144.739 6.04 144.484 5.895 144.284 5.715C144.094 5.525 143.954 5.3 143.864 5.04C143.784 4.78 143.744 4.49 143.744 4.17C143.744 3.7 143.819 3.225 143.969 2.745C144.119 2.255 144.349 1.815 144.659 1.425C144.969 1.035 145.359 0.715 145.829 0.465C146.299 0.215 146.859 0.0899997 147.509 0.0899997H154.949C155.839 0.0899997 156.519 0.26 156.989 0.6C157.459 0.93 157.694 1.455 157.694 2.175C157.694 2.995 157.539 3.67 157.229 4.2C156.929 4.73 156.434 5.155 155.744 5.475C156.144 5.645 156.414 5.835 156.554 6.045C156.694 6.245 156.764 6.475 156.764 6.735C156.764 6.875 156.749 7.015 156.719 7.155C156.689 7.295 156.659 7.45 156.629 7.62L155.849 11.34H149.534C148.444 11.34 147.629 11.175 147.089 10.845C146.559 10.505 146.294 9.96 146.294 9.21C146.294 9.08 146.299 8.945 146.309 8.805C146.329 8.655 146.359 8.5 146.399 8.34L146.549 7.62H148.709L148.634 7.995C148.604 8.135 148.579 8.265 148.559 8.385C148.539 8.505 148.529 8.615 148.529 8.715C148.529 8.995 148.609 9.195 148.769 9.315C148.939 9.435 149.219 9.495 149.609 9.495H154.079ZM147.449 1.935C146.969 1.935 146.629 2.035 146.429 2.235C146.229 2.435 146.099 2.695 146.039 3.015L145.994 3.255C145.944 3.475 145.919 3.65 145.919 3.78C145.919 3.99 145.989 4.155 146.129 4.275C146.269 4.385 146.539 4.44 146.939 4.44H148.484C148.864 4.44 149.129 4.335 149.279 4.125C149.439 3.905 149.559 3.62 149.639 3.27L149.924 1.935H147.449Z" fill="white"/>
<path d="M165.898 3.6C164.888 3.45 164.068 3.265 163.438 3.045C162.818 2.825 162.337 2.59 161.997 2.34C161.658 2.08 161.428 1.815 161.308 1.545C161.198 1.275 161.143 1.01 161.143 0.75C161.143 0.63 161.152 0.515 161.173 0.405C161.193 0.295 161.212 0.185 161.232 0.0749999H163.393C163.402 0.155 163.417 0.25 163.438 0.36C163.458 0.46 163.513 0.57 163.603 0.69C163.703 0.8 163.853 0.92 164.053 1.05C164.253 1.17 164.533 1.295 164.893 1.425C165.262 1.545 165.728 1.675 166.288 1.815C166.848 1.945 167.537 2.07 168.357 2.19L166.423 11.34H161.562C160.982 11.34 160.482 11.305 160.062 11.235C159.643 11.165 159.298 11.045 159.027 10.875C158.757 10.705 158.558 10.48 158.428 10.2C158.298 9.92 158.232 9.57 158.232 9.15C158.232 8.75 158.293 8.27 158.413 7.71L158.743 6.12H160.903L160.573 7.71C160.513 8 160.482 8.24 160.482 8.43C160.482 8.83 160.598 9.11 160.827 9.27C161.068 9.42 161.443 9.495 161.952 9.495H164.653L165.898 3.6Z" fill="white"/>
<path d="M172.215 4.44H175.98C176.9 4.44 177.615 4.605 178.125 4.935C178.645 5.265 178.905 5.805 178.905 6.555C178.905 6.805 178.875 7.08 178.815 7.38L178.62 8.28C178.51 8.81 178.325 9.265 178.065 9.645C177.805 10.025 177.495 10.345 177.135 10.605C176.775 10.855 176.37 11.04 175.92 11.16C175.48 11.28 175.015 11.34 174.525 11.34H168.6L170.25 3.54C170.36 3.02 170.5 2.55 170.67 2.13C170.84 1.7 171.075 1.335 171.375 1.035C171.685 0.735 172.085 0.505 172.575 0.345C173.065 0.175 173.685 0.0899997 174.435 0.0899997H179.49L179.1 1.935H174.255C173.945 1.935 173.685 1.965 173.475 2.025C173.275 2.085 173.105 2.175 172.965 2.295C172.835 2.415 172.73 2.57 172.65 2.76C172.57 2.95 172.5 3.175 172.44 3.435L172.215 4.44ZM171.825 6.285L171.15 9.495H174.255C174.635 9.495 174.955 9.465 175.215 9.405C175.475 9.335 175.69 9.24 175.86 9.12C176.04 8.99 176.18 8.83 176.28 8.64C176.38 8.45 176.46 8.225 176.52 7.965L176.58 7.71C176.62 7.52 176.64 7.34 176.64 7.17C176.64 6.82 176.505 6.585 176.235 6.465C175.975 6.345 175.53 6.285 174.9 6.285H171.825Z" fill="white"/>
<path d="M193.927 0.0899997H196.087L195.697 1.905C195.637 2.195 195.552 2.45 195.442 2.67C195.342 2.89 195.217 3.085 195.067 3.255C194.917 3.425 194.737 3.58 194.527 3.72C194.317 3.86 194.077 3.995 193.807 4.125C194.317 4.305 194.667 4.53 194.857 4.8C195.047 5.06 195.142 5.35 195.142 5.67C195.142 5.84 195.117 6.04 195.067 6.27L194.002 11.34H188.197C187.247 11.34 186.522 11.155 186.022 10.785C185.532 10.415 185.287 9.87 185.287 9.15C185.287 8.9 185.317 8.63 185.377 8.34L185.842 6.12H188.002L187.612 7.995C187.572 8.165 187.552 8.345 187.552 8.535C187.552 9.175 187.967 9.495 188.797 9.495H192.232L192.862 6.51C192.892 6.36 192.907 6.225 192.907 6.105C192.907 5.785 192.792 5.57 192.562 5.46C192.342 5.34 191.992 5.28 191.512 5.28H189.502L189.907 3.435H191.947C192.187 3.435 192.397 3.405 192.577 3.345C192.757 3.275 192.907 3.185 193.027 3.075C193.147 2.965 193.242 2.84 193.312 2.7C193.382 2.56 193.432 2.415 193.462 2.265L193.927 0.0899997Z" fill="white"/>
<path d="M199.467 5.37C199.427 5.53 199.407 5.69 199.407 5.85C199.407 6.3 199.552 6.66 199.842 6.93C200.132 7.19 200.492 7.405 200.922 7.575C201.362 7.745 201.832 7.9 202.332 8.04C202.842 8.18 203.312 8.35 203.742 8.55C204.182 8.75 204.547 9.015 204.837 9.345C205.127 9.665 205.272 10.095 205.272 10.635C205.272 10.745 205.262 10.86 205.242 10.98C205.232 11.09 205.217 11.21 205.197 11.34H203.052C203.022 10.94 202.872 10.62 202.602 10.38C202.332 10.13 202.002 9.94 201.612 9.81C201.222 9.68 200.802 9.595 200.352 9.555C199.912 9.515 199.507 9.495 199.137 9.495H196.242L196.632 7.65H197.667C197.367 7.31 197.217 6.85 197.217 6.27C197.217 5.96 197.262 5.6 197.352 5.19L198.432 0.0899997H204.567C205.517 0.0899997 206.237 0.275 206.727 0.645C207.217 1.015 207.462 1.56 207.462 2.28C207.462 2.54 207.432 2.81 207.372 3.09L206.907 5.295H204.747L205.152 3.435C205.192 3.265 205.212 3.09 205.212 2.91C205.212 2.26 204.797 1.935 203.967 1.935H200.202L199.467 5.37Z" fill="white"/>
<path d="M216.033 3.495C216.063 3.345 216.078 3.205 216.078 3.075C216.078 2.845 216.038 2.655 215.958 2.505C215.878 2.355 215.768 2.24 215.628 2.16C215.498 2.07 215.348 2.01 215.178 1.98C215.008 1.95 214.833 1.935 214.653 1.935H213.948L213.408 4.44H211.248L211.788 1.935H208.878L209.268 0.0899997H214.998C216.098 0.0899997 216.923 0.28 217.473 0.66C218.023 1.04 218.298 1.65 218.298 2.49C218.298 2.82 218.253 3.185 218.163 3.585L216.528 11.34H210.363C209.943 11.34 209.553 11.295 209.193 11.205C208.843 11.115 208.538 10.975 208.278 10.785C208.028 10.595 207.828 10.36 207.678 10.08C207.538 9.79 207.468 9.45 207.468 9.06C207.468 8.83 207.498 8.57 207.558 8.28L208.008 6.12H210.168L209.778 7.965C209.738 8.125 209.718 8.285 209.718 8.445C209.718 8.795 209.843 9.06 210.093 9.24C210.343 9.41 210.783 9.495 211.413 9.495H214.758L216.033 3.495Z" fill="white"/>
<path d="M223.167 6.285C222.837 6.285 222.552 6.35 222.312 6.48C222.072 6.6 221.867 6.76 221.697 6.96C221.537 7.16 221.417 7.38 221.337 7.62C221.257 7.86 221.217 8.09 221.217 8.31C221.217 8.63 221.312 8.91 221.502 9.15C221.692 9.38 222.022 9.495 222.492 9.495H224.757C225.057 9.495 225.317 9.475 225.537 9.435C225.757 9.395 225.947 9.315 226.107 9.195C226.277 9.075 226.417 8.91 226.527 8.7C226.637 8.49 226.732 8.215 226.812 7.875C226.862 7.625 226.887 7.425 226.887 7.275C226.887 6.885 226.762 6.625 226.512 6.495C226.272 6.355 225.912 6.285 225.432 6.285H223.167ZM223.152 2.145C222.482 2.145 221.992 2.015 221.682 1.755C221.382 1.495 221.232 1.125 221.232 0.645C221.232 0.545 221.237 0.445 221.247 0.345C221.267 0.235 221.287 0.12 221.307 0H223.662C223.682 0.25 223.792 0.405 223.992 0.465C224.202 0.515 224.467 0.54 224.787 0.54H228.372L228.027 2.145H226.632L226.137 4.44H226.437C226.927 4.44 227.347 4.51 227.697 4.65C228.047 4.78 228.332 4.965 228.552 5.205C228.772 5.435 228.932 5.705 229.032 6.015C229.132 6.315 229.182 6.635 229.182 6.975C229.182 7.455 229.087 7.955 228.897 8.475C228.717 8.985 228.447 9.455 228.087 9.885C227.737 10.305 227.297 10.655 226.767 10.935C226.247 11.205 225.647 11.34 224.967 11.34H221.817C221.307 11.34 220.867 11.27 220.497 11.13C220.137 10.99 219.837 10.8 219.597 10.56C219.357 10.32 219.182 10.04 219.072 9.72C218.962 9.4 218.907 9.06 218.907 8.7C218.907 8.22 219.002 7.73 219.192 7.23C219.392 6.72 219.677 6.26 220.047 5.85C220.427 5.43 220.887 5.09 221.427 4.83C221.977 4.57 222.607 4.44 223.317 4.44H223.962L224.457 2.145H223.152Z" fill="white"/>
<path d="M237.221 11.34L238.901 3.435C238.941 3.265 238.961 3.095 238.961 2.925C238.961 2.535 238.791 2.275 238.451 2.145C238.111 2.005 237.521 1.935 236.681 1.935C236.161 1.935 235.731 1.96 235.391 2.01C235.061 2.06 234.791 2.145 234.581 2.265C234.371 2.375 234.211 2.525 234.101 2.715C234.001 2.905 233.921 3.145 233.861 3.435L232.181 11.34H230.021L231.701 3.435C231.861 2.645 232.106 2.03 232.436 1.59C232.776 1.14 233.176 0.805 233.636 0.585001C234.106 0.365 234.631 0.23 235.211 0.18C235.791 0.12 236.411 0.0899997 237.071 0.0899997C237.661 0.0899997 238.206 0.11 238.706 0.15C239.216 0.19 239.651 0.285 240.011 0.435C240.381 0.585 240.671 0.81 240.881 1.11C241.091 1.4 241.196 1.805 241.196 2.325C241.196 2.645 241.151 3.015 241.061 3.435L239.381 11.34H237.221Z" fill="white"/>
</svg>
