<svg width="19" height="19" viewBox="0 0 19 19" fill="none" xmlns="http://www.w3.org/2000/svg">
<path d="M0.95 4.77987V0.955975L4.75 2.86792L0.95 4.77987ZM15.2 4.77987V0.955975L19 2.86792L15.2 4.77987ZM8.55 3.8239V0L12.35 1.91195L8.55 3.8239ZM6.65 19C5.82667 18.9203 5.01917 18.8008 4.2275 18.6415C3.43583 18.4822 2.72745 18.2868 2.10235 18.0555C1.47662 17.8248 0.969633 17.5581 0.5814 17.2553C0.1938 16.9526 0 16.618 0 16.2516V7.6478C0 7.24948 0.249533 6.87888 0.7486 6.536C1.24703 6.19376 1.92375 5.89104 2.77875 5.62782C3.63375 5.36525 4.63917 5.15812 5.795 5.00644C6.95083 4.8554 8.18583 4.77987 9.5 4.77987C10.8142 4.77987 12.0492 4.8554 13.205 5.00644C14.3608 5.15812 15.3663 5.36525 16.2213 5.62782C17.0763 5.89104 17.753 6.19376 18.2514 6.536C18.7505 6.87888 19 7.24948 19 7.6478V16.2516C19 16.618 18.8062 16.9526 18.4186 17.2553C18.0304 17.5581 17.5237 17.8248 16.8986 18.0555C16.2729 18.2868 15.5642 18.4822 14.7725 18.6415C13.9808 18.8008 13.1733 18.9203 12.35 19V14.3396H6.65V19ZM9.5 8.60377C11.0358 8.60377 12.362 8.512 13.4786 8.32845C14.5945 8.14554 15.485 7.93459 16.15 7.6956C16.15 7.61593 15.5483 7.42856 14.345 7.13348C13.1417 6.83904 11.5267 6.69182 9.5 6.69182C7.47333 6.69182 5.85833 6.83904 4.655 7.13348C3.45167 7.42856 2.85 7.61593 2.85 7.6956C3.515 7.93459 4.40578 8.14554 5.52235 8.32845C6.63828 8.512 7.96417 8.60377 9.5 8.60377Z" fill="#003C82"/>
</svg>
