<svg width="10" height="19" viewBox="0 0 10 19" fill="none" xmlns="http://www.w3.org/2000/svg">
<path d="M7.36786 12.7945L7.4993 12.0612C7.61924 11.392 8.2758 10.9407 8.95824 11.0583C9.64067 11.176 10.1009 11.8198 9.98093 12.489L9.7003 14.0535L8.98161 18.4132H7.41336C6.83755 16.3936 6.75199 14.5022 7.36786 12.7945Z" fill="#FFE9CA"/>
<path d="M7.07222 12.7877C8.30941 12.8047 8.48485 12.5409 8.48485 11.4025V1.38528C8.48485 0.211636 8.30941 0 7.07222 0H3.13085C2.28547 0 1.6001 0.672048 1.6001 1.50106V11.2864C1.6001 12.1154 2.28541 12.7875 3.13072 12.7875" fill="#F9F254"/>
<path d="M1.80862 11.2866V1.50106C1.80862 0.672048 2.49394 0 3.33925 0H1.53075C0.215812 0 0 0.211635 0 1.50106V11.2864C0 12.4872 0.215812 12.8047 1.53069 12.7875H3.33938C2.494 12.7877 1.80862 12.1156 1.80862 11.2866Z" fill="#F9F254"/>
<path d="M7.36971 12.7851L5.29371 12.7877L4.90958 10.4196C4.80633 9.78229 4.19002 9.34369 3.53996 9.44513C3.45178 9.45921 3.36548 9.48295 3.28271 9.51592C3.21383 9.70843 2.87896 9.88605 2.91364 10.1006L3.59314 14.215C3.75839 15.1254 4.29646 15.9779 4.96739 16.7685C5.27821 17.2232 5.19021 17.7931 5.32727 18.4134H7.41352L7.36971 12.7851Z" fill="#FFE9CA"/>
<path d="M3.88781 14.2172L3.22562 10.134C3.19188 9.92644 3.21147 9.71393 3.28262 9.51569C2.77687 9.71537 2.45699 10.2389 2.54612 10.7881L3.15593 14.5486C3.30806 15.3871 3.75181 16.1565 4.36974 16.8844C4.65599 17.3032 4.81706 17.8417 4.94349 18.4129H5.82868C5.69143 17.7926 5.51656 17.2081 5.20574 16.7533C4.53474 15.9629 4.05306 15.1276 3.88781 14.2172Z" fill="#FFD59C"/>
<path d="M3.66714 11.1797L4.64832 11.0029L4.53314 10.2926C4.47032 9.90533 4.09589 9.63872 3.70095 9.70032C3.61348 9.71395 3.52932 9.74322 3.45264 9.78667" fill="#FFD59C"/>
</svg>
